<svg xmlns="http://www.w3.org/2000/svg" xmlns:xlink="http://www.w3.org/1999/xlink" width="1366" zoomAndPan="magnify" viewBox="0 0 1024.5 576" height="768" preserveAspectRatio="xMidYMid meet" version="1.0"><defs><clipPath id="e03ae947d7"><path d="M 0 0.140625 L 1024 0.140625 L 1024 575.859375 L 0 575.859375 Z M 0 0.140625 " clip-rule="nonzero"/></clipPath></defs><g clip-path="url(#e03ae947d7)"><path fill="#ffffff" d="M 0 0.140625 L 1024.5 0.140625 L 1024.5 576.140625 L 0 576.140625 Z M 0 0.140625 " fill-opacity="1" fill-rule="nonzero"/><path fill="#ffffff" d="M 0 0.140625 L 1024.5 0.140625 L 1024.5 576.140625 L 0 576.140625 Z M 0 0.140625 " fill-opacity="1" fill-rule="nonzero"/></g><path fill="#ffffff" d="M 667.699219 457.019531 C 667.699219 457.019531 677.773438 472.765625 670.464844 479.578125 C 664.859375 484.808594 661.105469 487.460938 654.136719 494.273438 C 647.167969 501.089844 623.996094 506.390625 613.84375 497.753906 C 603.699219 489.125 644.875 457.402344 644.875 457.402344 Z M 708.089844 452.492188 C 708.089844 452.492188 698.015625 468.238281 705.324219 475.050781 C 710.929688 480.28125 714.683594 482.933594 721.652344 489.746094 C 728.621094 496.5625 751.792969 501.863281 761.945312 493.226562 C 772.089844 484.597656 730.917969 452.875 730.917969 452.875 Z M 708.089844 452.492188 " fill-opacity="1" fill-rule="nonzero"/><path fill="#000000" d="M 646.351562 472.941406 C 646.074219 472.941406 645.796875 472.808594 645.621094 472.570312 C 641.535156 466.8125 633.953125 467.535156 633.875 467.542969 C 633.386719 467.597656 632.949219 467.242188 632.894531 466.75 C 632.84375 466.261719 633.199219 465.828125 633.6875 465.773438 C 634.042969 465.738281 642.390625 464.945312 647.070312 471.546875 C 647.355469 471.945312 647.257812 472.5 646.859375 472.78125 C 646.707031 472.890625 646.527344 472.941406 646.351562 472.941406 Z M 640.574219 478.210938 C 640.976562 477.925781 641.074219 477.375 640.789062 476.972656 C 636.109375 470.382812 627.761719 471.164062 627.40625 471.199219 C 626.914062 471.253906 626.558594 471.6875 626.613281 472.179688 C 626.667969 472.667969 627.09375 473.003906 627.589844 472.96875 C 627.671875 472.960938 635.253906 472.242188 639.339844 477.996094 C 639.515625 478.246094 639.78125 478.371094 640.066406 478.371094 C 640.246094 478.378906 640.425781 478.324219 640.574219 478.210938 Z M 635.03125 483.964844 C 635.429688 483.679688 635.53125 483.128906 635.246094 482.730469 C 630.5625 476.136719 622.214844 476.917969 621.859375 476.957031 C 621.371094 477.007812 621.015625 477.445312 621.070312 477.933594 C 621.121094 478.421875 621.550781 478.789062 622.046875 478.726562 C 622.128906 478.726562 629.710938 477.996094 633.792969 483.75 C 633.972656 484 634.238281 484.125 634.523438 484.125 C 634.703125 484.125 634.878906 484.070312 635.03125 483.964844 Z M 730.175781 468.03125 C 734.246094 462.304688 741.851562 462.996094 741.925781 463.007812 C 742.40625 463.042969 742.847656 462.703125 742.902344 462.214844 C 742.957031 461.726562 742.601562 461.289062 742.109375 461.238281 C 741.753906 461.199219 733.40625 460.410156 728.726562 467.011719 C 728.441406 467.410156 728.539062 467.960938 728.941406 468.246094 C 729.09375 468.363281 729.277344 468.40625 729.457031 468.40625 C 729.734375 468.40625 730 468.28125 730.175781 468.03125 Z M 736.460938 473.46875 C 740.527344 467.730469 748.136719 468.433594 748.207031 468.441406 C 748.6875 468.476562 749.132812 468.140625 749.183594 467.648438 C 749.238281 467.160156 748.882812 466.726562 748.394531 466.671875 C 748.039062 466.636719 739.691406 465.84375 735.007812 472.4375 C 734.726562 472.835938 734.824219 473.386719 735.222656 473.671875 C 735.375 473.789062 735.5625 473.832031 735.738281 473.832031 C 736.015625 473.84375 736.28125 473.71875 736.460938 473.46875 Z M 742.003906 479.222656 C 746.070312 473.484375 753.679688 474.1875 753.75 474.199219 C 754.230469 474.242188 754.675781 473.894531 754.730469 473.40625 C 754.78125 472.917969 754.425781 472.480469 753.9375 472.425781 C 753.582031 472.390625 745.234375 471.601562 740.554688 478.199219 C 740.269531 478.601562 740.367188 479.152344 740.765625 479.4375 C 740.925781 479.554688 741.105469 479.597656 741.285156 479.597656 C 741.558594 479.597656 741.828125 479.472656 742.003906 479.222656 Z M 704.503906 302.796875 C 705.660156 307.386719 727.660156 395.382812 730.425781 450.960938 C 730.488281 452.179688 729.902344 453.335938 728.878906 454.003906 C 725.71875 456.078125 718.164062 459.761719 708.019531 456.449219 C 706.933594 456.09375 706.105469 455.222656 705.785156 454.128906 C 702.324219 442.289062 681.386719 371.417969 667.9375 342.628906 C 667.628906 341.964844 666.621094 342.1875 666.632812 342.925781 C 666.84375 359.042969 667.886719 433.457031 669.167969 455.480469 C 669.257812 456.929688 668.429688 458.273438 667.09375 458.851562 C 662.832031 460.695312 653.132812 463.773438 644.0625 458.640625 C 643.171875 458.140625 642.558594 457.269531 642.371094 456.265625 C 639.632812 441.765625 618.050781 326.832031 619.253906 307.046875 C 620.535156 285.984375 695.882812 278.734375 704.390625 302.414062 C 704.441406 302.546875 704.476562 302.671875 704.503906 302.796875 Z M 704.503906 302.796875 " fill-opacity="1" fill-rule="nonzero"/><path fill="#bb581c" d="M 630.945312 263.066406 C 630.945312 263.066406 639.179688 314.546875 622.476562 305.917969 C 605.773438 297.289062 608.433594 294.558594 610.246094 293.046875 C 612.0625 291.535156 616.308594 295.296875 616.308594 295.296875 C 612.980469 285.429688 614.039062 272.863281 614.039062 272.863281 Z M 630.945312 263.066406 " fill-opacity="1" fill-rule="nonzero"/><path fill="#7496df" d="M 741.949219 225.519531 C 741.496094 203.261719 721.5 208.9375 721.5 208.9375 C 703.320312 162.597656 658 169.023438 658 169.023438 C 623.800781 170.667969 602.445312 195.308594 602.445312 195.308594 C 602.445312 195.308594 563.589844 236.871094 568.816406 251.972656 C 574.039062 267.078125 607.4375 272.078125 607.4375 272.078125 L 610.988281 277.050781 C 612.269531 278.839844 614.714844 279.320312 616.574219 278.136719 C 617.507812 277.539062 618.46875 276.875 619.429688 276.179688 C 619.371094 276.875 619.308594 277.558594 619.253906 278.214844 C 618.113281 291.84375 620.613281 295.019531 620.613281 295.019531 L 619.253906 307.054688 C 660.828125 324.546875 704.230469 303.417969 704.449219 302.609375 C 704.683594 301.800781 699.976562 289.796875 699.976562 289.796875 C 705.261719 285.9375 703.089844 262.320312 703.089844 262.320312 C 732.855469 280.253906 742.40625 247.777344 741.949219 225.519531 Z M 607.445312 238.007812 L 620.082031 233.3125 L 623.808594 241.34375 C 623.808594 241.34375 623.230469 245.265625 622.476562 250.835938 C 615.425781 242.171875 607.445312 238.007812 607.445312 238.007812 Z M 607.445312 238.007812 " fill-opacity="1" fill-rule="nonzero"/><path fill="#ffffff" d="M 676.3125 181.910156 C 676.160156 188.46875 671.410156 201.019531 667.21875 210.875 C 663.863281 218.757812 660.875 224.914062 660.875 224.914062 C 659.433594 223.5625 656.078125 218.617188 652.382812 212.789062 C 645.96875 202.675781 638.511719 189.898438 638.199219 188.644531 C 638.171875 188.503906 638.164062 188.371094 638.171875 188.226562 C 640.085938 164.644531 676.890625 157.601562 676.3125 181.910156 Z M 676.3125 181.910156 " fill-opacity="1" fill-rule="nonzero"/><path fill="#ffb92a" d="M 667.21875 210.875 C 663.863281 218.757812 660.875 224.914062 660.875 224.914062 C 659.433594 223.5625 656.078125 218.617188 652.382812 212.789062 L 655.152344 198.003906 C 655.195312 197.726562 655.160156 197.453125 655.035156 197.203125 L 650.46875 188.308594 C 650.222656 187.820312 650.328125 187.203125 650.738281 186.832031 L 657.089844 180.890625 C 657.527344 180.488281 658.175781 180.445312 658.65625 180.773438 L 666.152344 185.949219 C 666.621094 186.28125 666.808594 186.882812 666.605469 187.425781 L 663.125 196.519531 C 663.019531 196.777344 663.007812 197.0625 663.089844 197.328125 C 663.613281 199.054688 665.707031 205.894531 667.21875 210.875 Z M 667.21875 210.875 " fill-opacity="1" fill-rule="nonzero"/><path fill="#ffffff" d="M 656.210938 165.132812 C 677.539062 157.207031 678.414062 181.332031 678.082031 189.785156 C 678.03125 191.234375 676.617188 192.257812 675.183594 191.875 L 658.816406 187.535156 C 658.300781 187.375 657.742188 187.402344 657.234375 187.597656 L 641.277344 193.804688 C 639.828125 194.367188 638.207031 193.449219 638.019531 191.9375 C 634.605469 164.476562 651.914062 164.949219 655.140625 165.269531 C 655.515625 165.320312 655.871094 165.257812 656.210938 165.132812 Z M 656.210938 165.132812 " fill-opacity="1" fill-rule="nonzero"/><path fill="#bb581c" d="M 668.117188 158.738281 C 668.0625 158.78125 668.019531 158.820312 667.964844 158.855469 C 668.171875 159.273438 668.347656 159.726562 668.472656 160.1875 L 670.457031 167.519531 C 671.167969 170.132812 670.367188 172.925781 668.382812 174.777344 L 658.667969 183.832031 L 647.84375 177.5625 C 645.371094 176.128906 643.957031 173.382812 644.234375 170.535156 L 645.023438 162.324219 C 645.050781 162.066406 645.097656 161.808594 645.148438 161.550781 C 645.121094 161.539062 645.097656 161.53125 645.058594 161.515625 C 644.714844 161.371094 644.375 161.230469 644.035156 161.078125 C 637.121094 158.035156 632.34375 150.582031 631.515625 142.15625 C 630.179688 128.707031 640.148438 116.316406 652.109375 115.132812 C 664.066406 113.949219 675.964844 123.824219 677.292969 137.273438 C 677.960938 144 676.507812 150.929688 672.09375 155.152344 C 670.734375 156.480469 669.425781 157.679688 668.117188 158.738281 Z M 668.117188 158.738281 " fill-opacity="1" fill-rule="nonzero"/><path fill="#000000" d="M 634.78125 131.1875 L 632.964844 143.980469 C 632.964844 143.980469 620.089844 140.121094 626.90625 122.027344 C 633.722656 103.933594 641.902344 108.476562 641.902344 108.476562 C 645.691406 100.070312 652.5 101.28125 671.515625 108.628906 C 690.535156 115.976562 679.179688 140.601562 675.15625 142.789062 C 671.132812 144.976562 669.851562 123.769531 669.851562 123.769531 C 651.601562 123.539062 648.496094 117.71875 648.496094 117.71875 C 649.027344 121.277344 656.90625 128.546875 652.207031 128.011719 C 647.507812 127.480469 642.890625 117.558594 642.890625 117.558594 C 641.164062 123.921875 634.78125 131.1875 634.78125 131.1875 Z M 656.941406 163.855469 C 652.855469 164.253906 648.746094 163.042969 645.070312 161.523438 C 647.070312 165.589844 651.261719 168.382812 656.105469 168.382812 C 661.984375 168.382812 666.90625 164.246094 668.117188 158.738281 C 664.664062 161.566406 661.273438 163.417969 656.941406 163.855469 Z M 663.445312 131.945312 C 661.691406 131.945312 660.269531 133.367188 660.269531 135.121094 C 660.269531 136.871094 661.691406 138.296875 663.445312 138.296875 C 665.199219 138.296875 666.621094 136.871094 666.621094 135.121094 C 666.632812 133.367188 665.207031 131.945312 663.445312 131.945312 Z M 643.582031 135.691406 C 641.828125 135.691406 640.40625 137.113281 640.40625 138.867188 C 640.40625 140.617188 641.828125 142.042969 643.582031 142.042969 C 645.335938 142.042969 646.761719 140.617188 646.761719 138.867188 C 646.761719 137.113281 645.34375 135.691406 643.582031 135.691406 Z M 643.582031 135.691406 " fill-opacity="1" fill-rule="nonzero"/><path fill="#bb581c" d="M 683.753906 143.855469 C 682.371094 148.382812 678.34375 151.175781 674.738281 150.082031 C 671.132812 148.988281 669.328125 144.433594 670.707031 139.898438 C 672.085938 135.371094 676.117188 132.578125 679.722656 133.671875 C 683.324219 134.765625 685.132812 139.328125 683.753906 143.855469 Z M 627.929688 153.847656 C 630.554688 157.785156 635.21875 159.300781 638.351562 157.21875 C 641.484375 155.136719 641.902344 150.253906 639.285156 146.300781 C 636.660156 142.363281 631.996094 140.847656 628.863281 142.929688 C 625.730469 145.011719 625.3125 149.90625 627.929688 153.847656 Z M 627.929688 153.847656 " fill-opacity="1" fill-rule="nonzero"/><path fill="#000000" d="M 666.632812 126.695312 C 666.445312 126.695312 666.257812 126.644531 666.105469 126.519531 C 661.238281 122.914062 656.335938 125.574219 656.128906 125.691406 C 655.703125 125.929688 655.160156 125.78125 654.921875 125.351562 C 654.679688 124.925781 654.832031 124.382812 655.257812 124.144531 C 655.507812 124 661.355469 120.789062 667.164062 125.09375 C 667.554688 125.386719 667.644531 125.949219 667.351562 126.339844 C 667.171875 126.582031 666.898438 126.695312 666.632812 126.695312 Z M 637.523438 132.824219 C 639.25 127.773438 644.8125 127.753906 645.070312 127.746094 C 645.53125 127.753906 645.957031 127.355469 645.96875 126.867188 C 645.976562 126.375 645.578125 125.96875 645.085938 125.96875 C 645.035156 125.96875 637.984375 125.957031 635.839844 132.246094 C 635.679688 132.710938 635.929688 133.21875 636.394531 133.375 C 636.492188 133.414062 636.589844 133.421875 636.675781 133.421875 C 637.042969 133.421875 637.390625 133.191406 637.523438 132.824219 Z M 675.46875 138.964844 C 676.367188 137.40625 677.320312 136.605469 678.296875 136.578125 C 679.828125 136.550781 681.054688 138.410156 681.066406 138.429688 C 681.199219 138.632812 681.472656 138.695312 681.679688 138.5625 C 681.882812 138.429688 681.945312 138.152344 681.8125 137.949219 C 681.75 137.851562 680.289062 135.664062 678.28125 135.691406 C 676.960938 135.714844 675.761719 136.675781 674.691406 138.519531 C 674.570312 138.730469 674.648438 139.007812 674.851562 139.125 C 674.925781 139.160156 674.996094 139.1875 675.074219 139.1875 C 675.234375 139.1875 675.386719 139.105469 675.46875 138.964844 Z M 627.761719 148.6875 C 627.699219 148.6875 627.636719 148.675781 627.574219 148.652344 C 627.351562 148.554688 627.253906 148.285156 627.351562 148.0625 C 627.394531 147.964844 628.5 145.5625 630.519531 145.316406 C 631.820312 145.15625 633.152344 145.917969 634.480469 147.59375 C 634.628906 147.789062 634.59375 148.0625 634.40625 148.214844 C 634.210938 148.367188 633.9375 148.332031 633.785156 148.144531 C 632.671875 146.730469 631.613281 146.078125 630.636719 146.195312 C 629.113281 146.382812 628.171875 148.402344 628.160156 148.429688 C 628.089844 148.589844 627.929688 148.6875 627.761719 148.6875 Z M 652.054688 152.269531 C 650.683594 152.269531 649.207031 152.09375 647.621094 151.675781 C 647.382812 151.613281 647.242188 151.363281 647.3125 151.132812 C 647.375 150.890625 647.621094 150.757812 647.855469 150.820312 C 656.859375 153.222656 662.429688 147.226562 662.484375 147.164062 C 662.644531 146.988281 662.929688 146.96875 663.117188 147.128906 C 663.292969 147.296875 663.3125 147.574219 663.152344 147.761719 C 663.089844 147.816406 658.960938 152.269531 652.054688 152.269531 Z M 651.441406 145.109375 C 651.21875 145.109375 651.03125 144.949219 650.996094 144.726562 C 650.746094 142.902344 651.066406 141.640625 651.957031 140.972656 C 653.40625 139.878906 655.757812 140.886719 655.855469 140.929688 C 656.078125 141.027344 656.183594 141.292969 656.085938 141.515625 C 655.988281 141.738281 655.730469 141.84375 655.5 141.746094 C 654.957031 141.507812 653.355469 141.035156 652.492188 141.683594 C 651.875 142.148438 651.671875 143.136719 651.875 144.613281 C 651.914062 144.851562 651.742188 145.082031 651.492188 145.109375 C 651.484375 145.101562 651.46875 145.109375 651.441406 145.109375 Z M 651.441406 145.109375 " fill-opacity="1" fill-rule="nonzero"/><path fill="#ffffff" d="M 738.828125 222.53125 C 736.699219 225.527344 731.238281 225.3125 726.625 222.039062 C 722.015625 218.765625 720.007812 213.6875 722.140625 210.6875 C 724.269531 207.691406 729.734375 207.90625 734.34375 211.179688 C 738.953125 214.445312 740.964844 219.523438 738.828125 222.53125 Z M 738.828125 222.53125 " fill-opacity="1" fill-rule="nonzero"/><path fill="#bb581c" d="M 737.511719 204.675781 C 737.492188 205.015625 737.4375 205.359375 737.375 205.691406 L 736.113281 218.019531 C 736.113281 218.019531 730.015625 223.089844 724.8125 214.460938 L 724.8125 210.226562 C 723.644531 209.523438 722.765625 208.671875 722.410156 207.90625 C 721.039062 204.988281 723.804688 203.714844 723.804688 203.714844 C 723.804688 203.714844 721.171875 203.554688 719.980469 200.957031 C 718.785156 198.359375 722 197.042969 722 197.042969 C 722 197.042969 719.132812 196.609375 718.386719 194.472656 C 717.648438 192.335938 720.078125 190.59375 720.078125 190.59375 C 720.078125 190.59375 717.308594 191.882812 716.839844 188.003906 C 716.527344 185.425781 718.539062 182.871094 722.933594 182.222656 C 720.894531 176.59375 721.464844 170.214844 725.542969 170.007812 C 728.871094 169.839844 729.902344 177.996094 730.222656 182.660156 C 730.585938 182.738281 730.941406 182.808594 731.324219 182.90625 C 737.945312 184.582031 737.832031 198.847656 737.511719 204.675781 Z M 737.511719 204.675781 " fill-opacity="1" fill-rule="nonzero"/><path fill="#000000" d="M 616.085938 278.316406 C 616.21875 278.519531 616.15625 278.792969 615.953125 278.929688 C 615.878906 278.972656 615.792969 279 615.710938 279 C 615.558594 279 615.417969 278.929688 615.339844 278.792969 L 611.085938 272.097656 C 610.949219 271.890625 611.011719 271.617188 611.21875 271.484375 C 611.421875 271.347656 611.699219 271.410156 611.832031 271.617188 Z M 659.566406 297.589844 C 637.132812 298.417969 622.75 295.082031 620.933594 294.636719 C 616.753906 285.785156 622.847656 251.253906 622.910156 250.90625 C 622.957031 250.667969 622.796875 250.433594 622.554688 250.390625 C 622.304688 250.347656 622.082031 250.507812 622.039062 250.746094 C 621.886719 251.589844 619.796875 263.441406 618.941406 274.96875 L 615.480469 268.902344 C 615.355469 268.6875 615.089844 268.617188 614.875 268.734375 C 614.660156 268.847656 614.589844 269.125 614.707031 269.339844 L 618.828125 276.5625 C 618.335938 284.257812 618.460938 291.558594 620.171875 295.074219 L 618.816406 306.992188 C 618.789062 307.234375 618.96875 307.457031 619.207031 307.484375 C 619.226562 307.484375 619.246094 307.484375 619.261719 307.484375 C 619.484375 307.484375 619.679688 307.3125 619.707031 307.09375 L 621.015625 295.554688 C 623.460938 296.132812 634.871094 298.597656 652.472656 298.597656 C 654.75 298.597656 657.128906 298.550781 659.601562 298.464844 C 659.851562 298.453125 660.035156 298.25 660.027344 298 C 660.019531 297.777344 659.8125 297.574219 659.566406 297.589844 Z M 657.609375 230.25 C 632.574219 197.125 628.242188 177.570312 628.195312 177.375 C 628.144531 177.136719 627.910156 176.984375 627.671875 177.027344 C 627.429688 177.082031 627.28125 177.3125 627.324219 177.554688 C 627.371094 177.75 631.722656 197.425781 656.816406 230.667969 L 660.847656 313.984375 C 660.855469 314.226562 661.050781 314.414062 661.292969 314.414062 C 661.300781 314.414062 661.308594 314.414062 661.308594 314.414062 C 661.558594 314.402344 661.746094 314.191406 661.738281 313.949219 L 657.695312 230.5 C 657.6875 230.402344 657.660156 230.320312 657.609375 230.25 Z M 607.683594 237.644531 C 607.4375 237.472656 601.5 233.675781 593.171875 239.699219 C 592.976562 239.839844 592.929688 240.117188 593.074219 240.320312 C 593.160156 240.445312 593.296875 240.507812 593.4375 240.507812 C 593.527344 240.507812 593.617188 240.480469 593.695312 240.425781 C 601.507812 234.789062 606.972656 238.25 607.203125 238.390625 C 607.410156 238.523438 607.683594 238.46875 607.820312 238.265625 C 607.953125 238.0625 607.890625 237.777344 607.683594 237.644531 Z M 639.675781 194.429688 C 639.722656 194.429688 639.773438 194.417969 639.820312 194.402344 L 658.84375 188.003906 L 675.074219 192.3125 C 675.316406 192.375 675.554688 192.230469 675.617188 191.992188 C 675.679688 191.75 675.539062 191.511719 675.296875 191.449219 L 658.933594 187.105469 C 658.851562 187.089844 658.765625 187.089844 658.675781 187.117188 L 639.523438 193.554688 C 639.292969 193.636719 639.167969 193.886719 639.25 194.117188 C 639.320312 194.3125 639.488281 194.429688 639.675781 194.429688 Z M 620.207031 234.644531 C 620.285156 234.804688 620.4375 234.894531 620.605469 234.894531 C 620.667969 234.894531 620.738281 234.875 620.800781 234.851562 C 621.023438 234.742188 621.113281 234.476562 621.007812 234.253906 L 614.4375 220.777344 C 614.332031 220.554688 614.066406 220.464844 613.84375 220.574219 C 613.621094 220.679688 613.53125 220.945312 613.636719 221.167969 Z M 720.085938 191.046875 C 720.148438 191.046875 720.210938 191.039062 720.273438 191.011719 C 720.316406 190.996094 724.5625 189.109375 729.464844 190.085938 C 729.707031 190.140625 729.9375 189.980469 729.992188 189.738281 C 730.035156 189.5 729.882812 189.269531 729.644531 189.214844 C 724.445312 188.183594 720.085938 190.121094 719.910156 190.203125 C 719.6875 190.300781 719.589844 190.566406 719.6875 190.789062 C 719.75 190.949219 719.910156 191.046875 720.085938 191.046875 Z M 722.933594 182.613281 C 722.988281 182.613281 727.988281 182.429688 730.097656 183.078125 C 730.140625 183.09375 730.1875 183.09375 730.230469 183.09375 C 730.417969 183.09375 730.597656 182.96875 730.65625 182.785156 C 730.730469 182.550781 730.597656 182.304688 730.363281 182.222656 C 728.113281 181.53125 723.121094 181.707031 722.90625 181.714844 C 722.65625 181.726562 722.472656 181.929688 722.480469 182.179688 C 722.480469 182.429688 722.667969 182.632812 722.933594 182.613281 Z M 663.054688 196.484375 C 662.859375 196.449219 658.160156 195.621094 655.035156 197.1875 C 654.8125 197.292969 654.722656 197.558594 654.839844 197.78125 C 654.921875 197.941406 655.070312 198.03125 655.242188 198.03125 C 655.3125 198.03125 655.375 198.011719 655.4375 197.988281 C 658.292969 196.554688 662.847656 197.355469 662.902344 197.363281 C 663.140625 197.40625 663.375 197.246094 663.417969 197.007812 C 663.453125 196.757812 663.292969 196.527344 663.054688 196.484375 Z M 721.832031 196.644531 C 721.609375 196.742188 721.492188 197 721.589844 197.222656 C 721.660156 197.390625 721.832031 197.496094 722 197.496094 C 722.054688 197.496094 722.117188 197.488281 722.167969 197.460938 C 722.214844 197.445312 726.886719 195.53125 730.257812 197.050781 C 730.480469 197.148438 730.746094 197.050781 730.84375 196.828125 C 730.941406 196.609375 730.84375 196.339844 730.621094 196.242188 C 726.902344 194.5625 722.035156 196.554688 721.832031 196.644531 Z M 727.117188 222.53125 C 726.867188 222.492188 726.644531 222.652344 726.609375 222.894531 L 725.648438 228.925781 C 725.613281 229.164062 725.773438 229.398438 726.023438 229.433594 C 726.046875 229.433594 726.066406 229.441406 726.09375 229.441406 C 726.304688 229.441406 726.492188 229.28125 726.527344 229.066406 L 727.488281 223.035156 C 727.527344 222.796875 727.367188 222.566406 727.117188 222.53125 Z M 731.136719 224.46875 C 730.898438 224.449219 730.675781 224.621094 730.648438 224.871094 L 730.0625 230.777344 C 730.035156 231.015625 730.214844 231.238281 730.460938 231.265625 C 730.480469 231.265625 730.488281 231.265625 730.507812 231.265625 C 730.730469 231.265625 730.925781 231.097656 730.953125 230.863281 L 731.539062 224.957031 C 731.566406 224.710938 731.386719 224.496094 731.136719 224.46875 Z M 732.847656 210.164062 C 732.792969 210.171875 727.152344 211.277344 725.0625 209.863281 C 724.925781 209.773438 724.765625 209.765625 724.625 209.828125 C 724.480469 209.890625 724.382812 210.03125 724.367188 210.183594 L 724 213.429688 C 723.976562 213.667969 724.152344 213.890625 724.394531 213.917969 C 724.410156 213.917969 724.429688 213.917969 724.445312 213.917969 C 724.667969 213.917969 724.863281 213.75 724.890625 213.527344 L 725.175781 210.929688 C 727.828125 212.050781 732.785156 211.082031 733.015625 211.035156 C 733.257812 210.992188 733.417969 210.75 733.363281 210.511719 C 733.328125 210.28125 733.097656 210.121094 732.847656 210.164062 Z M 735.632812 224.023438 C 735.382812 224.023438 735.1875 224.21875 735.1875 224.46875 L 735.1875 230.8125 C 735.1875 231.0625 735.382812 231.257812 735.632812 231.257812 C 735.882812 231.257812 736.078125 231.0625 736.078125 230.8125 L 736.078125 224.46875 C 736.078125 224.230469 735.882812 224.023438 735.632812 224.023438 Z M 739.261719 222.441406 C 739.21875 222.199219 738.980469 222.039062 738.746094 222.085938 C 738.507812 222.128906 738.347656 222.359375 738.390625 222.601562 L 739.621094 229.078125 C 739.65625 229.289062 739.839844 229.441406 740.054688 229.441406 C 740.082031 229.441406 740.109375 229.441406 740.136719 229.433594 C 740.375 229.386719 740.535156 229.15625 740.492188 228.917969 Z M 699.789062 289.398438 C 699.644531 289.46875 685.601562 296.25 668.347656 297.601562 C 668.269531 297.609375 668.195312 297.636719 668.136719 297.679688 L 665.242188 229.734375 C 683.519531 201.375 684.617188 172.3125 684.625 172.019531 C 684.632812 171.769531 684.4375 171.566406 684.195312 171.558594 C 684.1875 171.558594 684.1875 171.558594 684.179688 171.558594 C 683.9375 171.558594 683.742188 171.742188 683.734375 171.984375 C 683.726562 172.269531 682.640625 201.171875 664.414062 229.363281 C 664.363281 229.441406 664.34375 229.53125 664.34375 229.621094 L 667.929688 313.976562 C 667.9375 314.21875 668.136719 314.402344 668.375 314.402344 C 668.382812 314.402344 668.382812 314.402344 668.394531 314.402344 C 668.640625 314.394531 668.828125 314.183594 668.820312 313.941406 L 668.160156 298.410156 C 668.222656 298.445312 668.296875 298.472656 668.375 298.472656 C 668.382812 298.472656 668.402344 298.472656 668.410156 298.472656 C 685.835938 297.109375 700.027344 290.253906 700.171875 290.179688 C 700.394531 290.074219 700.480469 289.808594 700.375 289.585938 C 700.269531 289.378906 700 289.28125 699.789062 289.398438 Z M 721.894531 209.152344 C 722.007812 208.9375 721.929688 208.660156 721.714844 208.546875 C 721.5 208.429688 721.226562 208.511719 721.109375 208.722656 C 720.984375 208.953125 708.417969 232.476562 709.773438 254.011719 C 709.789062 254.25 709.984375 254.429688 710.21875 254.429688 C 710.226562 254.429688 710.234375 254.429688 710.246094 254.429688 C 710.492188 254.410156 710.679688 254.207031 710.664062 253.957031 C 709.320312 232.6875 721.769531 209.382812 721.894531 209.152344 Z M 703.863281 234.003906 C 703.863281 234.003906 703.855469 234.003906 703.855469 234.003906 C 703.613281 234.003906 703.417969 234.191406 703.410156 234.441406 L 702.652344 262.300781 C 702.644531 262.550781 702.839844 262.757812 703.089844 262.757812 C 703.089844 262.757812 703.097656 262.757812 703.097656 262.757812 C 703.339844 262.757812 703.535156 262.570312 703.542969 262.320312 L 704.300781 234.457031 C 704.300781 234.21875 704.113281 234.015625 703.863281 234.003906 Z M 723.003906 219.070312 C 722.765625 219.023438 722.523438 219.175781 722.480469 219.417969 L 721.054688 226.335938 C 721.011719 226.578125 721.164062 226.816406 721.402344 226.863281 C 721.429688 226.871094 721.464844 226.871094 721.492188 226.871094 C 721.695312 226.871094 721.882812 226.726562 721.929688 226.515625 L 723.351562 219.59375 C 723.40625 219.355469 723.246094 219.113281 723.003906 219.070312 Z M 730.132812 204.179688 C 730.1875 204.195312 730.230469 204.203125 730.285156 204.203125 C 730.472656 204.203125 730.640625 204.089844 730.703125 203.910156 C 730.78125 203.679688 730.667969 203.421875 730.4375 203.339844 C 728.085938 202.503906 723.914062 203.261719 723.734375 203.289062 C 723.496094 203.332031 723.335938 203.5625 723.378906 203.804688 C 723.421875 204.042969 723.65625 204.214844 723.894531 204.160156 C 723.929688 204.160156 728.015625 203.421875 730.132812 204.179688 Z M 730.132812 204.179688 " fill-opacity="1" fill-rule="nonzero"/><path fill="#000000" d="M 662.464844 261.199219 C 661.015625 261.261719 659.886719 262.488281 659.949219 263.9375 C 659.972656 264.640625 660.277344 265.292969 660.800781 265.761719 C 661.292969 266.207031 661.921875 266.457031 662.582031 266.457031 C 662.617188 266.457031 662.660156 266.457031 662.699219 266.457031 C 664.148438 266.394531 665.277344 265.167969 665.214844 263.714844 C 665.1875 263.015625 664.886719 262.363281 664.363281 261.894531 C 663.84375 261.414062 663.179688 261.171875 662.464844 261.199219 Z M 662.652344 265.574219 C 662.191406 265.59375 661.746094 265.433594 661.398438 265.121094 C 661.050781 264.8125 660.855469 264.375 660.835938 263.914062 C 660.792969 262.953125 661.539062 262.140625 662.5 262.097656 C 662.527344 262.097656 662.554688 262.097656 662.582031 262.097656 C 663.019531 262.097656 663.4375 262.257812 663.757812 262.558594 C 664.105469 262.871094 664.300781 263.308594 664.316406 263.769531 C 664.363281 264.714844 663.613281 265.53125 662.652344 265.574219 Z M 661.503906 238.765625 C 660.054688 238.828125 658.925781 240.054688 658.988281 241.503906 C 659.011719 242.207031 659.316406 242.855469 659.839844 243.328125 C 660.332031 243.773438 660.953125 244.023438 661.621094 244.023438 C 661.65625 244.023438 661.699219 244.023438 661.738281 244.023438 C 663.1875 243.960938 664.316406 242.730469 664.253906 241.28125 C 664.226562 240.578125 663.925781 239.929688 663.402344 239.457031 C 662.882812 238.976562 662.207031 238.730469 661.503906 238.765625 Z M 661.691406 243.132812 C 661.230469 243.148438 660.785156 242.988281 660.4375 242.679688 C 660.089844 242.367188 659.894531 241.929688 659.875 241.46875 C 659.832031 240.507812 660.578125 239.699219 661.539062 239.652344 C 661.566406 239.652344 661.59375 239.652344 661.621094 239.652344 C 662.058594 239.652344 662.476562 239.8125 662.796875 240.117188 C 663.144531 240.425781 663.339844 240.863281 663.355469 241.328125 C 663.402344 242.277344 662.652344 243.097656 661.691406 243.132812 Z M 661.984375 249.980469 C 661.28125 250.007812 660.632812 250.3125 660.160156 250.835938 C 659.691406 251.351562 659.441406 252.027344 659.46875 252.730469 C 659.492188 253.433594 659.796875 254.082031 660.320312 254.554688 C 660.8125 255.007812 661.441406 255.246094 662.101562 255.246094 C 662.136719 255.246094 662.179688 255.246094 662.21875 255.246094 C 662.921875 255.222656 663.570312 254.917969 664.042969 254.394531 C 664.511719 253.878906 664.761719 253.203125 664.734375 252.5 C 664.707031 251.796875 664.40625 251.148438 663.882812 250.675781 C 663.363281 250.195312 662.699219 249.953125 661.984375 249.980469 Z M 663.382812 253.789062 C 663.070312 254.136719 662.636719 254.332031 662.171875 254.347656 C 661.710938 254.367188 661.265625 254.207031 660.917969 253.894531 C 660.570312 253.585938 660.375 253.148438 660.355469 252.6875 C 660.339844 252.222656 660.5 251.777344 660.8125 251.433594 C 661.121094 251.085938 661.558594 250.890625 662.019531 250.871094 C 662.046875 250.871094 662.074219 250.871094 662.101562 250.871094 C 662.539062 250.871094 662.957031 251.03125 663.277344 251.332031 C 663.625 251.644531 663.820312 252.082031 663.835938 252.542969 C 663.863281 253.007812 663.703125 253.449219 663.382812 253.789062 Z M 662.945312 272.417969 C 661.496094 272.480469 660.367188 273.707031 660.429688 275.15625 C 660.457031 275.859375 660.757812 276.507812 661.28125 276.980469 C 661.773438 277.433594 662.402344 277.675781 663.0625 277.675781 C 663.097656 277.675781 663.140625 277.675781 663.179688 277.675781 C 663.882812 277.648438 664.53125 277.34375 665.003906 276.820312 C 665.472656 276.304688 665.722656 275.628906 665.695312 274.925781 C 665.667969 274.222656 665.367188 273.574219 664.84375 273.101562 C 664.324219 272.628906 663.660156 272.382812 662.945312 272.417969 Z M 664.34375 276.222656 C 664.03125 276.570312 663.597656 276.765625 663.132812 276.785156 C 662.660156 276.800781 662.226562 276.640625 661.878906 276.332031 C 661.53125 276.019531 661.335938 275.582031 661.316406 275.121094 C 661.273438 274.160156 662.019531 273.351562 662.980469 273.304688 C 663.007812 273.304688 663.035156 273.304688 663.0625 273.304688 C 663.5 273.304688 663.917969 273.464844 664.238281 273.769531 C 664.585938 274.082031 664.78125 274.515625 664.796875 274.980469 C 664.824219 275.441406 664.664062 275.886719 664.34375 276.222656 Z M 660.917969 286.382812 C 660.945312 287.085938 661.246094 287.734375 661.773438 288.207031 C 662.261719 288.660156 662.894531 288.898438 663.550781 288.898438 C 663.585938 288.898438 663.632812 288.898438 663.667969 288.898438 C 664.371094 288.875 665.019531 288.570312 665.492188 288.046875 C 665.964844 287.53125 666.210938 286.855469 666.1875 286.152344 C 666.160156 285.449219 665.855469 284.800781 665.332031 284.328125 C 664.816406 283.847656 664.148438 283.597656 663.4375 283.632812 C 661.976562 283.695312 660.855469 284.933594 660.917969 286.382812 Z M 663.542969 284.523438 C 663.980469 284.523438 664.398438 284.683594 664.71875 284.984375 C 665.066406 285.296875 665.261719 285.734375 665.277344 286.195312 C 665.296875 286.660156 665.136719 287.101562 664.824219 287.449219 C 664.511719 287.796875 664.078125 287.992188 663.613281 288.011719 C 663.152344 288.019531 662.707031 287.867188 662.359375 287.558594 C 662.011719 287.246094 661.816406 286.808594 661.800781 286.347656 C 661.753906 285.386719 662.5 284.566406 663.464844 284.53125 C 663.5 284.523438 663.515625 284.523438 663.542969 284.523438 Z M 663.917969 294.859375 C 662.464844 294.921875 661.335938 296.148438 661.398438 297.601562 C 661.425781 298.304688 661.726562 298.953125 662.253906 299.425781 C 662.742188 299.878906 663.375 300.117188 664.03125 300.117188 C 664.066406 300.117188 664.113281 300.117188 664.148438 300.117188 C 665.597656 300.054688 666.730469 298.828125 666.667969 297.378906 C 666.59375 295.917969 665.359375 294.78125 663.917969 294.859375 Z M 664.105469 299.226562 C 663.640625 299.238281 663.195312 299.085938 662.847656 298.773438 C 662.5 298.464844 662.304688 298.027344 662.289062 297.566406 C 662.242188 296.605469 662.992188 295.792969 663.953125 295.75 C 663.980469 295.75 664.003906 295.75 664.023438 295.75 C 664.949219 295.75 665.722656 296.480469 665.769531 297.414062 C 665.8125 298.375 665.054688 299.183594 664.105469 299.226562 Z M 664.105469 299.226562 " fill-opacity="1" fill-rule="nonzero"/><path fill="#ffffff" d="M 667.9375 343.074219 C 667.886719 343.074219 667.832031 343.066406 667.777344 343.046875 L 649.464844 336.011719 C 649.234375 335.921875 649.117188 335.664062 649.207031 335.433594 C 649.296875 335.203125 649.554688 335.085938 649.785156 335.175781 L 668.097656 342.210938 C 668.332031 342.300781 668.445312 342.558594 668.355469 342.789062 C 668.285156 342.96875 668.117188 343.074219 667.9375 343.074219 Z M 667.9375 343.074219 " fill-opacity="1" fill-rule="nonzero"/><path fill="#000000" d="M 434.023438 454.101562 C 434.023438 454.101562 462.792969 467.125 465.761719 478.125 C 468.726562 489.125 440.507812 498.035156 428.039062 490.609375 C 415.5625 483.179688 407.542969 484.070312 404.277344 481.695312 C 401.015625 479.320312 396.15625 460.4375 400.953125 453.234375 C 405.761719 446.023438 434.023438 454.101562 434.023438 454.101562 Z M 331.324219 455.183594 C 323.722656 459.320312 319.238281 478.296875 321.027344 481.921875 C 322.816406 485.542969 330.328125 488.484375 337.921875 500.875 C 345.511719 513.261719 374.636719 518.5 377.117188 507.386719 C 379.601562 496.273438 357.335938 465.484375 357.335938 465.484375 C 357.335938 465.484375 338.933594 451.042969 331.324219 455.183594 Z M 331.324219 455.183594 " fill-opacity="1" fill-rule="nonzero"/><path fill="#bb581c" d="M 438.214844 248.59375 C 438.214844 248.59375 445.113281 261.105469 444.226562 280.492188 C 443.335938 299.882812 438.214844 319.496094 438.214844 319.496094 C 438.214844 319.496094 445.203125 336.667969 432.792969 353.832031 C 420.386719 370.984375 416.597656 251.519531 416.597656 251.519531 Z M 438.214844 248.59375 " fill-opacity="1" fill-rule="nonzero"/><path fill="#fdefdc" d="M 364.796875 494.9375 C 363.949219 494.9375 363.085938 494.851562 362.210938 494.683594 C 349.558594 492.203125 338.695312 472.824219 338.242188 471.996094 C 338.128906 471.785156 338.199219 471.515625 338.417969 471.402344 C 338.625 471.289062 338.898438 471.359375 339.011719 471.578125 C 339.125 471.777344 350.128906 491.4375 362.386719 493.828125 C 366.085938 494.554688 369.566406 493.621094 372.746094 491.0625 C 372.925781 490.914062 373.207031 490.9375 373.355469 491.132812 C 373.503906 491.316406 373.476562 491.59375 373.285156 491.742188 C 370.648438 493.863281 367.796875 494.9375 364.796875 494.9375 Z M 453.082031 474.125 C 455.945312 473.515625 458.109375 471.988281 459.511719 469.585938 C 459.632812 469.375 459.566406 469.113281 459.355469 468.992188 C 459.144531 468.871094 458.882812 468.941406 458.761719 469.148438 C 457.488281 471.332031 455.515625 472.71875 452.898438 473.269531 C 440.394531 475.941406 416.949219 459.207031 416.714844 459.03125 C 416.511719 458.894531 416.242188 458.9375 416.101562 459.128906 C 415.960938 459.320312 416.007812 459.601562 416.199219 459.738281 C 417.097656 460.386719 436.78125 474.429688 449.941406 474.429688 C 451.046875 474.429688 452.09375 474.335938 453.082031 474.125 Z M 453.082031 474.125 " fill-opacity="1" fill-rule="nonzero"/><path fill="#184b6b" d="M 429.855469 325.757812 C 430.472656 330.863281 439.84375 409.816406 435.902344 454.554688 C 435.8125 455.539062 435.160156 456.371094 434.214844 456.691406 C 429.285156 458.367188 413.421875 462.726562 400.324219 454.878906 C 399.777344 454.546875 399.410156 453.996094 399.277344 453.375 C 398.257812 448.347656 393.695312 425.089844 393.625 411.019531 C 393.625 410.199219 393.503906 409.394531 393.25 408.617188 C 391.660156 403.78125 385.613281 384.988281 384.28125 374.5625 C 384.28125 374.5625 380.511719 396.851562 372.046875 417.355469 C 364.394531 435.882812 360.144531 458.421875 359.394531 462.59375 C 359.304688 463.082031 359.097656 463.527344 358.78125 463.914062 C 356.242188 467.011719 343.851562 479.746094 321.792969 464.3125 C 320.929688 463.710938 320.390625 462.742188 320.355469 461.6875 C 320.058594 452.449219 321.203125 429.542969 324.8125 411.570312 C 327.40625 398.65625 312.84375 367.457031 323.285156 330.226562 C 333.714844 293.027344 415.246094 246.238281 429.773438 325.25 C 429.808594 325.40625 429.835938 325.582031 429.855469 325.757812 Z M 429.855469 325.757812 " fill-opacity="1" fill-rule="nonzero"/><path fill="#fdefdc" d="M 453.605469 253.144531 C 438.648438 263.375 427.148438 262.816406 427.148438 262.816406 C 430.273438 283.410156 432.707031 314.957031 433.265625 322.421875 C 433.34375 323.453125 432.734375 324.402344 431.773438 324.796875 C 423.1875 328.339844 406.121094 328.324219 400.980469 328.234375 C 400.0625 328.21875 399.242188 327.675781 398.867188 326.847656 L 391.878906 311.554688 L 385.9375 327.597656 C 385.65625 328.339844 385.03125 328.90625 384.253906 329.082031 C 370.738281 332.148438 352.648438 332.066406 339.296875 331.40625 C 332.101562 331.046875 326.269531 330.523438 323.285156 330.21875 C 322.046875 330.085938 321.121094 329.03125 321.15625 327.789062 L 322.34375 283.148438 L 322.886719 262.816406 L 319.5625 264.109375 C 318.46875 264.535156 317.230469 264.109375 316.648438 263.085938 C 315.589844 261.246094 314.082031 259.386719 312.257812 257.542969 C 304.089844 249.285156 289.632812 241.472656 281.960938 237.640625 C 281.082031 237.195312 280.285156 236.808594 279.597656 236.476562 C 278.210938 235.804688 277.824219 234.007812 278.8125 232.820312 L 299.710938 207.835938 C 319.988281 183.613281 342.886719 178.523438 347.824219 177.675781 C 348.460938 177.5625 349.011719 177.195312 349.375 176.664062 C 359.578125 161.953125 372.746094 165.507812 375.773438 166.578125 C 376.207031 166.738281 376.679688 166.753906 377.132812 166.640625 C 393.710938 162.609375 400.152344 172.898438 401.757812 176.234375 C 402.070312 176.882812 402.664062 177.316406 403.363281 177.492188 C 432.078125 184.667969 451.195312 240.082031 454.539062 250.453125 C 454.871094 251.457031 454.476562 252.550781 453.605469 253.144531 Z M 453.605469 253.144531 " fill-opacity="1" fill-rule="nonzero"/><path fill="#bb581c" d="M 404.566406 137.019531 C 404.566406 147.707031 400.746094 157.746094 393.257812 162.285156 C 392.21875 162.914062 391.101562 163.4375 389.925781 163.847656 L 390.089844 166.34375 L 390.421875 171.511719 L 384.742188 196.46875 L 360.457031 169.617188 L 361.90625 158.96875 C 361.671875 158.765625 361.453125 158.566406 361.234375 158.355469 C 356.261719 153.484375 354 145.070312 354 137.964844 C 354 123.472656 366.09375 110.769531 379.785156 110.769531 C 393.476562 110.769531 404.566406 122.519531 404.566406 137.019531 Z M 404.566406 137.019531 " fill-opacity="1" fill-rule="nonzero"/><path fill="#000000" d="M 399.488281 115.449219 C 399.488281 115.449219 408.25 119.910156 404.445312 134.332031 C 404.445312 134.332031 401.730469 127.304688 398.074219 121.925781 C 396.09375 119.011719 393.164062 116.882812 389.792969 115.894531 C 390.929688 118.75 391.601562 121.945312 389.542969 123.027344 C 387.308594 124.207031 385.335938 120.742188 384.035156 117.441406 C 383.277344 121.195312 381.984375 125.289062 379.847656 126.152344 C 376.59375 127.460938 378.476562 118.085938 379.410156 114.078125 C 379.234375 114.070312 373.652344 122.417969 370.371094 122.574219 C 368.058594 122.6875 368.144531 120.050781 368.765625 117.484375 C 365.046875 120.320312 356.792969 128.945312 354.882812 141.316406 C 354.882812 141.316406 351.984375 137.398438 349.605469 133.921875 C 347.507812 130.867188 347.292969 126.878906 349.0625 123.613281 C 351.070312 119.902344 354.464844 114.820312 359.261719 111.539062 C 359.261719 111.539062 354.078125 112.542969 353.644531 110.316406 C 353.207031 108.089844 362.457031 103.855469 372.027344 108.089844 C 372.027344 108.089844 365.125 103.132812 365.957031 101.519531 C 366.742188 100.007812 373.710938 100.835938 379.253906 105.699219 C 378.765625 103.273438 378.433594 100.269531 379.933594 100.835938 C 381.390625 101.394531 382.296875 104.015625 382.789062 106.046875 C 384.410156 105.65625 386.601562 105.296875 388.582031 105.535156 C 392.296875 105.980469 406.554688 111.992188 406.109375 114.113281 C 405.667969 116.234375 399.488281 115.449219 399.488281 115.449219 Z M 389.925781 163.847656 C 388.074219 164.484375 386.050781 164.824219 383.851562 164.824219 C 377.492188 164.824219 368.234375 163.664062 362.726562 159.613281 C 364.113281 165.8125 371.445312 170.507812 379.28125 170.507812 C 383.851562 170.507812 387.167969 168.902344 390.089844 166.34375 Z M 374.332031 137.398438 C 374.332031 139.210938 372.867188 140.679688 371.050781 140.679688 C 369.238281 140.679688 367.769531 139.210938 367.769531 137.398438 C 367.769531 135.582031 369.238281 134.113281 371.050781 134.113281 C 372.867188 134.113281 374.332031 135.582031 374.332031 137.398438 Z M 395.160156 136.097656 C 395.160156 137.910156 393.695312 139.378906 391.878906 139.378906 C 390.066406 139.378906 388.597656 137.910156 388.597656 136.097656 C 388.597656 134.28125 390.066406 132.8125 391.878906 132.8125 C 393.695312 132.8125 395.160156 134.289062 395.160156 136.097656 Z M 364.175781 130.929688 C 363.695312 130.929688 363.207031 130.726562 362.867188 130.335938 C 362.230469 129.609375 362.300781 128.511719 363.023438 127.871094 C 368.257812 123.253906 375.25 124.652344 375.546875 124.710938 C 376.488281 124.914062 377.089844 125.839844 376.898438 126.78125 C 376.695312 127.722656 375.773438 128.328125 374.839844 128.132812 C 374.742188 128.117188 369.21875 127.0625 365.328125 130.5 C 365.003906 130.789062 364.585938 130.929688 364.175781 130.929688 Z M 396.015625 128.78125 C 395.691406 128.78125 395.371094 128.691406 395.082031 128.511719 C 391.511719 126.230469 387.867188 127.75 387.71875 127.820312 C 386.835938 128.195312 385.804688 127.792969 385.421875 126.921875 C 385.039062 126.039062 385.429688 125.019531 386.304688 124.625 C 386.523438 124.527344 391.765625 122.25 396.957031 125.566406 C 397.769531 126.082031 398.003906 127.164062 397.492188 127.976562 C 397.148438 128.492188 396.589844 128.78125 396.015625 128.78125 Z M 396.015625 128.78125 " fill-opacity="1" fill-rule="nonzero"/><path fill="#bb581c" d="M 359.28125 142.292969 C 362.117188 146.746094 361.90625 151.964844 358.792969 153.949219 C 355.683594 155.929688 350.859375 153.929688 348.023438 149.46875 C 345.1875 145.007812 345.398438 139.796875 348.511719 137.816406 C 351.621094 135.84375 356.445312 137.84375 359.28125 142.292969 Z M 359.28125 142.292969 " fill-opacity="1" fill-rule="nonzero"/><path fill="#000000" d="M 348.808594 307.824219 C 348.601562 307.824219 348.390625 307.808594 348.171875 307.773438 C 346.035156 307.425781 344.578125 305.40625 344.925781 303.269531 C 345.058594 302.472656 357.597656 223.339844 337.761719 197.335938 C 334.351562 192.863281 330.285156 190.429688 325.3125 189.898438 C 323.15625 189.660156 321.59375 187.730469 321.828125 185.574219 C 322.066406 183.417969 323.992188 181.855469 326.148438 182.09375 C 333.277344 182.859375 339.289062 186.386719 344.011719 192.578125 C 365.878906 221.261719 353.226562 301.148438 352.675781 304.535156 C 352.371094 306.457031 350.703125 307.824219 348.808594 307.824219 Z M 388.609375 145.175781 C 388.851562 145.175781 389.042969 144.972656 389.042969 144.738281 C 389.035156 143.410156 388.589844 142.335938 387.71875 141.570312 C 385.789062 139.859375 382.480469 140.226562 382.34375 140.242188 C 382.105469 140.269531 381.933594 140.488281 381.957031 140.722656 C 381.984375 140.957031 382.195312 141.132812 382.4375 141.105469 C 382.464844 141.105469 385.511719 140.773438 387.140625 142.222656 C 387.820312 142.828125 388.164062 143.671875 388.171875 144.746094 C 388.171875 144.984375 388.363281 145.175781 388.609375 145.175781 Z M 393.964844 148.484375 C 394.121094 148.300781 394.105469 148.03125 393.929688 147.871094 C 393.746094 147.707031 393.476562 147.722656 393.3125 147.90625 C 393.257812 147.96875 388.039062 153.582031 375.011719 150.894531 C 374.785156 150.847656 374.542969 150.996094 374.5 151.234375 C 374.445312 151.46875 374.601562 151.695312 374.839844 151.75 C 377.464844 152.289062 379.785156 152.507812 381.820312 152.507812 C 390.28125 152.507812 393.789062 148.683594 393.964844 148.484375 Z M 349.21875 144.003906 C 349.226562 143.988281 349.933594 141.980469 351.253906 141.777344 C 352.1875 141.640625 353.328125 142.449219 354.542969 144.128906 C 354.683594 144.320312 354.953125 144.363281 355.152344 144.222656 C 355.34375 144.082031 355.390625 143.804688 355.25 143.613281 C 353.800781 141.621094 352.414062 140.722656 351.121094 140.914062 C 349.273438 141.195312 348.433594 143.621094 348.398438 143.726562 C 348.320312 143.953125 348.441406 144.207031 348.671875 144.277344 C 348.714844 144.292969 348.765625 144.300781 348.808594 144.300781 C 348.984375 144.300781 349.160156 144.1875 349.21875 144.003906 Z M 349.21875 144.003906 " fill-opacity="1" fill-rule="nonzero"/><path fill="#eb4c30" d="M 340.929688 363.539062 L 263.125 347.046875 C 256.5625 345.660156 252.652344 339.269531 254.378906 332.773438 L 267.285156 284.472656 C 269.023438 277.988281 275.742188 273.851562 282.300781 275.238281 L 360.109375 291.726562 C 366.671875 293.117188 370.582031 299.507812 368.851562 306 L 355.945312 354.300781 C 354.210938 360.796875 347.484375 364.925781 340.929688 363.539062 Z M 340.929688 363.539062 " fill-opacity="1" fill-rule="nonzero"/><path fill="#000000" d="M 343.285156 313.449219 L 278.558594 299.726562 C 274.1875 298.800781 269.695312 301.558594 268.542969 305.886719 L 261.167969 333.492188 C 260.609375 335.59375 260.90625 337.75 262.015625 339.566406 C 263.125 341.375 264.902344 342.613281 267.03125 343.066406 L 331.757812 356.789062 C 332.328125 356.914062 332.902344 356.972656 333.46875 356.972656 C 337.25 356.972656 340.773438 354.390625 341.777344 350.636719 L 349.148438 323.03125 C 349.707031 320.929688 349.410156 318.773438 348.304688 316.957031 C 347.195312 315.140625 345.414062 313.902344 343.285156 313.449219 Z M 348.3125 322.796875 L 340.9375 350.398438 C 339.902344 354.285156 335.871094 356.765625 331.941406 355.933594 L 267.214844 342.210938 C 265.332031 341.808594 263.742188 340.710938 262.765625 339.113281 C 261.78125 337.507812 261.519531 335.59375 262.015625 333.726562 L 269.386719 306.125 C 270.285156 302.746094 273.453125 300.433594 276.847656 300.433594 C 277.355469 300.433594 277.871094 300.484375 278.382812 300.589844 L 343.113281 314.3125 C 344.996094 314.714844 346.585938 315.8125 347.5625 317.410156 C 348.539062 319.007812 348.808594 320.929688 348.3125 322.796875 Z M 360.597656 307.335938 L 351.234375 344.203125 C 351.183594 344.402344 351.007812 344.535156 350.816406 344.535156 C 350.78125 344.535156 350.746094 344.535156 350.710938 344.515625 C 350.476562 344.457031 350.335938 344.21875 350.398438 343.984375 L 359.761719 307.117188 C 360.273438 305.085938 359.953125 302.988281 358.835938 301.207031 C 357.726562 299.429688 355.980469 298.222656 353.921875 297.796875 L 274.238281 281.367188 C 274.003906 281.3125 273.855469 281.085938 273.898438 280.851562 C 273.941406 280.617188 274.179688 280.46875 274.414062 280.511719 L 354.097656 296.941406 C 356.382812 297.410156 358.328125 298.765625 359.570312 300.746094 C 360.808594 302.726562 361.175781 305.066406 360.597656 307.335938 Z M 360.597656 307.335938 " fill-opacity="1" fill-rule="nonzero"/><path fill="#bb581c" d="M 352.109375 297.882812 C 349.316406 306.132812 338.066406 297.4375 336.0625 302.789062 C 334.054688 308.140625 344.230469 326.898438 343.234375 330.128906 C 342.273438 333.230469 338.242188 329.832031 338.078125 329.761719 C 338.148438 329.851562 338.714844 330.515625 339.296875 331.40625 C 340.425781 333.140625 340.441406 335.4375 338.101562 335.628906 C 335.300781 335.855469 333.949219 334.773438 333.949219 334.773438 C 330.3125 338.003906 324.414062 330.503906 324.414062 330.503906 C 324.414062 330.503906 324.8125 336.222656 317.902344 329.089844 C 311 321.960938 313.007812 302.0625 313.007812 302.0625 C 313.007812 302.0625 275.128906 281.390625 271.570312 266.011719 C 269.851562 258.609375 275.566406 247.339844 281.960938 237.640625 C 289.632812 241.472656 304.089844 249.285156 312.257812 257.542969 C 310.058594 259.175781 308.550781 260.109375 308.550781 260.109375 C 311.96875 264.011719 318.757812 276.398438 322.34375 283.148438 C 323.777344 285.835938 324.699219 287.632812 324.699219 287.632812 C 324.699219 287.632812 331.609375 286.742188 335.957031 290.53125 C 340.292969 294.320312 354.890625 289.640625 352.109375 297.882812 Z M 352.109375 297.882812 " fill-opacity="1" fill-rule="nonzero"/><path fill="#fdefdc" d="M 367.882812 148.40625 L 362.257812 146.109375 C 361.617188 145.847656 361.3125 145.121094 361.566406 144.484375 L 362.449219 142.320312 C 362.710938 141.683594 363.433594 141.378906 364.070312 141.628906 L 369.699219 143.925781 C 370.335938 144.1875 370.640625 144.914062 370.386719 145.550781 L 369.507812 147.714844 C 369.246094 148.359375 368.519531 148.667969 367.882812 148.40625 Z M 402.402344 148.507812 L 400.300781 147.488281 C 399.679688 147.191406 398.929688 147.445312 398.632812 148.074219 L 395.988281 153.554688 C 395.691406 154.175781 395.945312 154.925781 396.574219 155.222656 L 398.675781 156.242188 C 399.296875 156.539062 400.046875 156.289062 400.34375 155.660156 L 402.988281 150.175781 C 403.285156 149.558594 403.023438 148.804688 402.402344 148.507812 Z M 402.402344 148.507812 " fill-opacity="1" fill-rule="nonzero"/><path fill="#000000" d="M 340.40625 331.175781 C 340.328125 331.324219 340.179688 331.414062 340.015625 331.414062 C 339.945312 331.414062 339.882812 331.394531 339.8125 331.371094 C 339.5 331.210938 332.039062 327.285156 328.6875 312.617188 C 328.636719 312.382812 328.785156 312.148438 329.019531 312.09375 C 329.253906 312.042969 329.492188 312.191406 329.542969 312.425781 C 332.789062 326.65625 340.136719 330.558594 340.214844 330.59375 C 340.433594 330.699219 340.519531 330.960938 340.40625 331.175781 Z M 322.851562 318.011719 C 322.761719 317.785156 322.519531 317.671875 322.292969 317.75 C 322.066406 317.828125 321.953125 318.082031 322.03125 318.308594 C 325.886719 328.777344 333.601562 335.042969 333.679688 335.105469 C 333.757812 335.167969 333.855469 335.203125 333.949219 335.203125 C 334.082031 335.203125 334.203125 335.148438 334.289062 335.035156 C 334.4375 334.851562 334.414062 334.574219 334.21875 334.425781 C 334.152344 334.371094 326.621094 328.246094 322.851562 318.011719 Z M 318.105469 319.585938 C 318.023438 319.359375 317.78125 319.234375 317.554688 319.3125 C 317.328125 319.394531 317.207031 319.636719 317.285156 319.863281 C 319.300781 325.757812 323.914062 330.59375 324.117188 330.800781 C 324.203125 330.890625 324.316406 330.933594 324.429688 330.933594 C 324.542969 330.933594 324.648438 330.890625 324.734375 330.8125 C 324.910156 330.644531 324.917969 330.367188 324.746094 330.191406 C 324.683594 330.148438 320.050781 325.292969 318.105469 319.585938 Z M 353.320312 231.179688 C 353.171875 231.355469 340.257812 246.640625 328.199219 257.65625 C 301.804688 231.34375 283.472656 227.179688 283.296875 227.144531 C 283.0625 227.09375 282.824219 227.242188 282.78125 227.476562 C 282.730469 227.714844 282.878906 227.949219 283.113281 227.992188 C 283.296875 228.027344 301.386719 232.164062 327.554688 258.242188 C 325.871094 259.761719 324.210938 261.191406 322.613281 262.476562 C 322.421875 262.625 322.398438 262.902344 322.546875 263.085938 C 322.632812 263.191406 322.753906 263.253906 322.886719 263.253906 C 322.980469 263.253906 323.078125 263.21875 323.15625 263.15625 C 324.882812 261.777344 326.671875 260.222656 328.488281 258.582031 C 328.496094 258.582031 328.496094 258.574219 328.503906 258.574219 C 328.503906 258.574219 328.503906 258.5625 328.511719 258.5625 C 340.703125 247.488281 353.84375 231.929688 353.992188 231.753906 C 354.148438 231.570312 354.125 231.292969 353.941406 231.144531 C 353.757812 230.96875 353.476562 230.996094 353.320312 231.179688 Z M 379.726562 193.230469 L 369.863281 202.84375 C 369.707031 203 369.5 203.085938 369.28125 203.070312 C 369.0625 203.0625 368.859375 202.972656 368.714844 202.808594 C 365.003906 198.695312 352.667969 184.660156 349.785156 176.515625 C 349.707031 176.289062 349.457031 176.164062 349.226562 176.253906 C 349 176.332031 348.878906 176.585938 348.964844 176.8125 C 351.898438 185.105469 364.332031 199.265625 368.066406 203.402344 C 368.371094 203.742188 368.792969 203.933594 369.253906 203.953125 C 369.269531 203.953125 369.289062 203.953125 369.304688 203.953125 C 369.742188 203.953125 370.160156 203.785156 370.476562 203.472656 L 380.335938 193.859375 C 380.511719 193.695312 380.511719 193.414062 380.34375 193.242188 C 380.179688 193.066406 379.898438 193.066406 379.726562 193.230469 Z M 391.441406 311.519531 C 391.425781 311.761719 391.609375 311.964844 391.851562 311.980469 C 391.863281 311.980469 391.871094 311.980469 391.878906 311.980469 C 392.105469 311.980469 392.296875 311.804688 392.316406 311.570312 C 395.414062 265.546875 386.023438 199.953125 385.929688 199.296875 C 385.894531 199.0625 385.660156 198.886719 385.429688 198.933594 C 385.195312 198.96875 385.03125 199.183594 385.066406 199.429688 C 385.160156 200.085938 394.53125 265.589844 391.441406 311.519531 Z M 399.664062 198.03125 C 402.105469 189.339844 403.058594 177.335938 403.066406 177.210938 C 403.082031 176.96875 402.910156 176.757812 402.664062 176.742188 C 402.445312 176.722656 402.210938 176.898438 402.195312 177.144531 C 402.183594 177.265625 401.242188 189.171875 398.816406 197.789062 C 398.738281 198.058594 398.546875 198.261719 398.277344 198.339844 C 398.003906 198.417969 397.71875 198.355469 397.507812 198.164062 C 395.203125 196.113281 390.945312 192.566406 388.40625 191.914062 C 388.171875 191.851562 387.9375 191.992188 387.875 192.226562 C 387.8125 192.464844 387.953125 192.699219 388.1875 192.761719 C 389.917969 193.207031 393.101562 195.414062 396.933594 198.820312 C 397.246094 199.097656 397.636719 199.246094 398.046875 199.246094 C 398.207031 199.246094 398.371094 199.21875 398.519531 199.175781 C 399.085938 199.019531 399.507812 198.589844 399.664062 198.03125 Z M 419.609375 234.644531 C 419.90625 237.046875 418.546875 239.296875 416.304688 240.117188 C 414.523438 240.765625 412.59375 240.992188 410.761719 240.992188 C 409.085938 240.992188 407.488281 240.800781 406.171875 240.574219 C 403.957031 240.1875 402.261719 238.40625 401.964844 236.15625 L 399.050781 213.902344 C 399.035156 213.789062 399.070312 213.667969 399.140625 213.582031 C 399.210938 213.484375 399.324219 213.433594 399.4375 213.414062 L 416.363281 211.632812 C 416.609375 211.609375 416.816406 211.78125 416.84375 212.019531 Z M 418.746094 234.75 L 416.042969 212.550781 L 399.976562 214.242188 L 402.839844 236.050781 C 403.082031 237.925781 404.488281 239.402344 406.328125 239.71875 C 408.964844 240.179688 412.785156 240.476562 416.007812 239.296875 C 417.863281 238.617188 418.992188 236.75 418.746094 234.75 Z M 452.679688 243.722656 C 452.539062 243.523438 452.269531 243.480469 452.070312 243.621094 C 451.972656 243.6875 442.097656 250.65625 426.355469 253.613281 L 421.269531 215.796875 C 421.234375 215.5625 421.007812 215.386719 420.777344 215.421875 C 420.542969 215.457031 420.367188 215.675781 420.402344 215.910156 L 425.550781 254.207031 L 426.710938 262.867188 C 426.738281 263.085938 426.929688 263.242188 427.140625 263.242188 C 427.15625 263.242188 427.175781 263.242188 427.203125 263.242188 C 427.4375 263.207031 427.613281 262.992188 427.578125 262.753906 L 426.46875 254.488281 C 442.425781 251.492188 452.480469 244.40625 452.574219 244.335938 C 452.777344 244.195312 452.820312 243.925781 452.679688 243.722656 Z M 301.175781 253.746094 C 300.957031 253.640625 300.695312 253.71875 300.589844 253.9375 C 300.488281 254.15625 300.566406 254.417969 300.785156 254.523438 C 300.835938 254.546875 305.785156 257.082031 308.199219 260.363281 C 308.289062 260.476562 308.417969 260.539062 308.550781 260.539062 C 308.636719 260.539062 308.734375 260.511719 308.8125 260.449219 C 309.003906 260.308594 309.046875 260.03125 308.90625 259.839844 C 306.359375 256.390625 301.386719 253.851562 301.175781 253.746094 Z M 396.765625 351.882812 C 396.554688 351.769531 396.285156 351.839844 396.171875 352.058594 L 383.90625 374.347656 C 383.789062 374.554688 383.859375 374.824219 384.078125 374.941406 C 384.148438 374.972656 384.21875 374.992188 384.289062 374.992188 C 384.445312 374.992188 384.59375 374.914062 384.671875 374.765625 L 396.941406 352.476562 C 397.054688 352.269531 396.976562 351.996094 396.765625 351.882812 Z M 396.765625 351.882812 " fill-opacity="1" fill-rule="nonzero"/><path fill="#eb8b51" d="M 571.039062 493.546875 C 559.601562 504.214844 541.359375 496.613281 541.359375 483.457031 C 541.359375 473.636719 544.542969 457.472656 545.792969 451.53125 C 545.800781 451.523438 545.800781 451.515625 545.800781 451.515625 C 546.09375 450.078125 546.285156 449.246094 546.285156 449.246094 C 546.285156 449.246094 544.140625 431.855469 541.730469 415.125 C 540.25 404.816406 538.65625 394.769531 537.398438 389.167969 C 534.101562 374.472656 528.609375 338.953125 528.609375 338.953125 C 519.816406 316.800781 537.621094 305.179688 555.425781 323.605469 C 573.234375 342.019531 554.109375 354.085938 562.902344 375.136719 C 566.691406 384.203125 567.5 398.804688 567.1875 412.496094 C 566.90625 425.15625 565.671875 437.035156 564.957031 443.019531 C 564.640625 445.632812 565 448.265625 566 450.699219 C 570.066406 460.59375 579.613281 485.535156 571.039062 493.546875 Z M 472.238281 494.300781 C 483.671875 504.96875 501.917969 497.367188 501.917969 484.210938 C 501.917969 474.394531 498.730469 458.230469 497.484375 452.285156 C 497.472656 452.277344 497.472656 452.269531 497.472656 452.269531 C 497.179688 450.835938 496.992188 450.003906 496.992188 450.003906 C 496.992188 450.003906 499.136719 432.609375 501.546875 415.878906 C 503.027344 405.574219 504.621094 395.523438 505.878906 389.925781 C 509.175781 375.230469 514.667969 339.707031 514.667969 339.707031 C 523.457031 317.558594 505.652344 305.9375 487.847656 324.359375 C 470.042969 342.773438 489.164062 354.839844 480.375 375.890625 C 476.585938 384.960938 475.777344 399.5625 476.085938 413.25 C 476.371094 425.910156 477.601562 437.789062 478.316406 443.777344 C 478.636719 446.386719 478.273438 449.023438 477.273438 451.453125 C 473.210938 461.347656 463.664062 486.289062 472.238281 494.300781 Z M 472.238281 494.300781 " fill-opacity="1" fill-rule="nonzero"/><path fill="#ffffff" d="M 571.039062 493.546875 C 559.601562 504.214844 541.359375 496.613281 541.359375 483.457031 C 541.359375 473.636719 544.542969 457.472656 545.792969 451.53125 C 545.800781 451.523438 545.800781 451.515625 545.800781 451.515625 C 546.09375 450.078125 546.285156 449.246094 546.285156 449.246094 C 546.285156 449.246094 544.140625 431.855469 541.730469 415.125 C 553.316406 416.007812 562.503906 413.921875 567.1875 412.496094 C 566.90625 425.15625 565.671875 437.035156 564.957031 443.019531 C 564.640625 445.632812 565 448.265625 566 450.699219 C 570.066406 460.59375 579.613281 485.535156 571.039062 493.546875 Z M 472.238281 494.300781 C 483.671875 504.96875 501.917969 497.367188 501.917969 484.210938 C 501.917969 474.394531 498.730469 458.230469 497.484375 452.285156 C 497.472656 452.277344 497.472656 452.269531 497.472656 452.269531 C 497.179688 450.835938 496.992188 450.003906 496.992188 450.003906 C 496.992188 450.003906 499.136719 432.609375 501.546875 415.878906 C 489.957031 416.765625 480.769531 414.675781 476.085938 413.25 C 476.371094 425.910156 477.601562 437.789062 478.316406 443.777344 C 478.636719 446.386719 478.273438 449.023438 477.273438 451.453125 C 473.210938 461.347656 463.664062 486.289062 472.238281 494.300781 Z M 472.238281 494.300781 " fill-opacity="1" fill-rule="nonzero"/><path fill="#000000" d="M 571.683594 494.5 C 559.679688 505.691406 540.542969 497.722656 540.542969 483.910156 C 540.542969 475.261719 543.828125 457.515625 544.878906 452.039062 C 544.949219 451.6875 545.449219 451.695312 545.519531 452.046875 L 547.378906 461.75 L 547.488281 461.742188 C 548.503906 458.144531 552.371094 455.464844 556.996094 455.464844 C 561.222656 455.464844 564.820312 457.707031 566.171875 460.851562 L 566.398438 460.839844 L 566.398438 451.617188 C 566.398438 451.171875 567.007812 451.050781 567.171875 451.460938 C 571.734375 462.832031 580.171875 486.574219 571.683594 494.5 Z M 471.59375 495.265625 C 483.59375 506.457031 502.734375 498.484375 502.734375 484.675781 C 502.734375 476.027344 499.445312 458.28125 498.394531 452.800781 C 498.328125 452.449219 497.828125 452.457031 497.757812 452.8125 L 495.898438 462.507812 L 495.785156 462.5 C 494.769531 458.898438 490.90625 456.21875 486.28125 456.21875 C 482.054688 456.21875 478.453125 458.460938 477.101562 461.605469 L 476.878906 461.597656 L 476.878906 452.371094 C 476.878906 451.925781 476.269531 451.804688 476.105469 452.21875 C 471.539062 463.597656 463.101562 487.335938 471.59375 495.265625 Z M 471.59375 495.265625 " fill-opacity="1" fill-rule="nonzero"/><path fill="#ffffff" d="M 566.808594 460.703125 C 566.742188 460.480469 566.5 460.351562 566.269531 460.421875 C 566.042969 460.488281 565.914062 460.730469 565.984375 460.960938 C 566 461.023438 566.792969 463.554688 567.402344 467.042969 C 564.96875 466.339844 556.445312 464.363281 546.921875 467.796875 C 547.292969 464.386719 547.886719 461.90625 547.902344 461.847656 C 547.960938 461.613281 547.816406 461.382812 547.585938 461.332031 C 547.351562 461.269531 547.117188 461.417969 547.066406 461.648438 C 546.902344 462.300781 543.167969 477.8125 549.082031 485.191406 C 551.078125 487.679688 553.945312 488.941406 557.625 488.941406 C 557.726562 488.941406 557.828125 488.941406 557.933594 488.941406 C 561.6875 488.875 564.535156 487.519531 566.40625 484.925781 C 571.941406 477.21875 567.015625 461.375 566.808594 460.703125 Z M 567.566406 467.988281 C 567.878906 469.917969 568.109375 472.09375 568.136719 474.265625 C 566.765625 473.820312 557.3125 471.019531 546.707031 475.011719 C 546.566406 472.847656 546.652344 470.683594 546.828125 468.75 C 556.953125 464.9375 565.992188 467.488281 567.566406 467.988281 Z M 565.707031 484.410156 C 564.003906 486.769531 561.386719 488 557.914062 488.066406 C 554.386719 488.136719 551.628906 486.984375 549.753906 484.640625 C 547.917969 482.355469 547.085938 479.160156 546.785156 475.898438 C 557.976562 471.578125 567.921875 475.089844 568.015625 475.125 C 568.058594 475.140625 568.09375 475.140625 568.136719 475.140625 C 568.085938 478.585938 567.464844 481.96875 565.707031 484.410156 Z M 495.691406 462.085938 C 495.460938 462.148438 495.320312 462.378906 495.375 462.601562 C 495.390625 462.660156 495.984375 465.144531 496.355469 468.554688 C 486.832031 465.117188 478.308594 467.09375 475.871094 467.796875 C 476.492188 464.3125 477.273438 461.777344 477.292969 461.71875 C 477.359375 461.492188 477.242188 461.253906 477.007812 461.175781 C 476.785156 461.109375 476.542969 461.226562 476.464844 461.460938 C 476.25 462.128906 471.324219 477.984375 476.863281 485.671875 C 478.730469 488.265625 481.582031 489.613281 485.335938 489.691406 C 485.4375 489.691406 485.539062 489.691406 485.644531 489.691406 C 489.320312 489.691406 492.1875 488.429688 494.183594 485.9375 C 500.101562 478.558594 496.363281 463.046875 496.199219 462.394531 C 496.148438 462.171875 495.925781 462.027344 495.691406 462.085938 Z M 496.449219 469.507812 C 496.621094 471.441406 496.699219 473.605469 496.570312 475.769531 C 485.972656 471.785156 476.515625 474.574219 475.148438 475.019531 C 475.175781 472.847656 475.40625 470.675781 475.714844 468.742188 C 477.285156 468.246094 486.324219 465.703125 496.449219 469.507812 Z M 493.523438 485.40625 C 491.644531 487.75 488.871094 488.882812 485.359375 488.832031 C 481.890625 488.761719 479.273438 487.535156 477.566406 485.171875 C 475.8125 482.734375 475.191406 479.351562 475.140625 475.914062 C 475.183594 475.914062 475.21875 475.914062 475.261719 475.898438 C 475.355469 475.863281 485.28125 472.339844 496.492188 476.671875 C 496.191406 479.933594 495.355469 483.121094 493.523438 485.40625 Z M 493.523438 485.40625 " fill-opacity="1" fill-rule="nonzero"/><path fill="#eb8b51" d="M 481.710938 141.875 C 477.714844 143.792969 474.476562 148.917969 469.3125 150.851562 L 467.640625 159.355469 L 456.429688 156.339844 L 458.730469 149.296875 C 456.636719 147.203125 455.949219 144.082031 455.734375 141.917969 C 455.5625 140.21875 454.949219 138.605469 453.90625 137.246094 C 451.402344 133.992188 447.304688 128.210938 449.199219 127.59375 C 451.609375 126.804688 457.550781 133.863281 458.589844 135.125 C 458.625 135.167969 458.6875 135.125 458.667969 135.074219 C 454.605469 122.113281 454.90625 117.175781 457.394531 117.957031 C 459.632812 118.660156 462.363281 129.828125 462.90625 132.386719 C 462.914062 132.445312 463.34375 132.394531 463.34375 132.335938 C 463.335938 129.363281 463.199219 114.710938 465.996094 114.589844 C 468.992188 114.460938 468.492188 118.027344 468.542969 132.292969 C 468.542969 132.351562 468.628906 132.351562 468.640625 132.292969 C 471.789062 118.765625 474.640625 115.628906 476.542969 117.632812 C 478.042969 119.210938 472.71875 136.207031 472.71875 136.207031 C 472.710938 136.226562 472.710938 136.234375 472.710938 136.25 C 471.894531 141.507812 474.785156 138.664062 479.296875 136.636719 C 483.808594 134.636719 487.160156 139.265625 481.710938 141.875 Z M 563.375 266.917969 L 553.371094 277.335938 C 553.371094 277.335938 545.570312 318.234375 558.535156 315.296875 C 571.503906 312.359375 571.398438 307.269531 569.96875 306.71875 C 568.539062 306.167969 566.121094 307.707031 566.121094 307.707031 C 566.121094 307.707031 566.558594 305.292969 568.722656 297.175781 C 570.882812 289.058594 567 284.566406 567 284.566406 L 568.722656 281.863281 Z M 563.375 266.917969 " fill-opacity="1" fill-rule="nonzero"/><path fill="#eb4c30" d="M 555.875 276.796875 L 572.921875 352.253906 C 573.234375 353.613281 572.441406 354.976562 571.105469 355.371094 C 568.023438 356.292969 562.296875 357.710938 556.375 357.683594 C 555.917969 357.683594 555.480469 357.785156 555.074219 358.007812 C 553.328125 358.964844 547.644531 361.539062 539.386719 360.242188 C 538.84375 360.15625 538.292969 360.21875 537.804688 360.457031 C 535.804688 361.429688 529.625 363.839844 520.625 361.761719 C 520.230469 361.667969 519.816406 361.667969 519.421875 361.761719 C 510.421875 363.839844 504.242188 361.429688 502.242188 360.457031 C 501.753906 360.21875 501.195312 360.15625 500.660156 360.242188 C 492.402344 361.539062 486.71875 358.964844 484.972656 358.007812 C 484.578125 357.792969 484.128906 357.683594 483.671875 357.683594 C 477.738281 357.710938 472.015625 356.285156 468.933594 355.363281 C 467.605469 354.96875 466.8125 353.613281 467.105469 352.265625 L 483.515625 277.320312 L 484.6875 270.199219 C 484.902344 268.917969 486.003906 267.984375 487.304688 267.984375 L 551.054688 267.984375 C 552.199219 267.984375 553.214844 268.722656 553.578125 269.804688 L 555.796875 276.539062 C 555.832031 276.632812 555.859375 276.71875 555.875 276.796875 Z M 555.875 276.796875 " fill-opacity="1" fill-rule="nonzero"/><path fill="#bfd9ff" d="M 608.550781 246.296875 C 607.183594 258.941406 586.90625 273.917969 578.132812 274.503906 L 571.925781 281.433594 C 570.691406 282.808594 568.6875 283.183594 567.035156 282.34375 C 563.925781 280.753906 559.328125 277.773438 558.441406 273.730469 L 562.890625 265.519531 C 562.890625 265.519531 558.199219 258.046875 571.390625 242.113281 C 571.390625 242.113281 566.050781 236 564.097656 233.859375 C 564.097656 233.859375 563.960938 275.042969 559.664062 286.328125 C 559.664062 286.328125 560.816406 290.667969 561.085938 295.570312 C 561.144531 296.746094 560.4375 297.828125 559.328125 298.214844 C 554.652344 299.863281 541.050781 303.859375 520.039062 303.445312 C 492.007812 302.894531 481.632812 299.605469 478.953125 298.523438 C 478.488281 298.335938 478.214844 297.871094 478.273438 297.375 C 478.429688 295.957031 478.789062 292.984375 479.367188 290.941406 C 479.945312 288.898438 480.296875 287.910156 480.984375 286.457031 C 480.984375 286.457031 474.726562 281.914062 476.980469 215.371094 C 469.691406 217.054688 465.53125 215.703125 455.621094 215.371094 C 438.367188 214.785156 428.894531 211.03125 427.921875 197.316406 C 426.949219 183.601562 451.78125 161.792969 451.78125 161.792969 L 454.40625 154.355469 C 454.726562 153.445312 455.507812 152.765625 456.464844 152.621094 C 462.128906 151.71875 466.761719 154.039062 468.871094 155.378906 C 469.621094 155.859375 469.984375 156.753906 469.765625 157.609375 L 467.476562 166.621094 C 470.40625 172.21875 468.355469 179.210938 468.355469 179.210938 C 479.09375 174.316406 492.617188 173.011719 500.367188 172.683594 C 505.457031 169.953125 512.273438 168.640625 521.609375 169.625 C 521.609375 169.625 543.046875 173.183594 553.378906 179.398438 C 563.710938 185.628906 575.996094 186.597656 580.484375 199.238281 C 584.960938 211.867188 609.921875 233.644531 608.550781 246.296875 Z M 608.550781 246.296875 " fill-opacity="1" fill-rule="nonzero"/><path fill="#000000" d="M 551.878906 153.429688 C 551.277344 174.589844 559.871094 176.890625 558.898438 180.34375 C 557.925781 183.796875 551.132812 181.582031 551.132812 181.582031 C 551.132812 181.582031 554.472656 195.144531 543.417969 188.246094 C 527.652344 178.414062 529.074219 135.210938 529.074219 135.210938 C 532.414062 121.222656 552.484375 132.265625 551.878906 153.429688 Z M 491.894531 153.429688 C 492.496094 174.589844 483.90625 176.890625 484.878906 180.34375 C 485.851562 183.796875 492.644531 181.582031 492.644531 181.582031 C 492.644531 181.582031 489.304688 195.144531 500.359375 188.246094 C 516.125 178.414062 514.703125 135.210938 514.703125 135.210938 C 511.363281 121.222656 491.285156 132.265625 491.894531 153.429688 Z M 491.894531 153.429688 " fill-opacity="1" fill-rule="nonzero"/><path fill="#ffffff" d="M 539.472656 184.097656 C 537.070312 191.519531 532.5 199.515625 528.617188 205.554688 C 524.929688 211.28125 521.867188 215.242188 521.867188 215.242188 L 521.867188 215.351562 C 521.867188 215.351562 518.808594 211.402344 515.125 205.679688 C 511.242188 199.644531 506.667969 191.640625 504.257812 184.210938 C 499.574219 169.738281 514.609375 165.28125 514.609375 165.28125 L 521.789062 165.28125 L 521.867188 174.597656 L 521.945312 165.167969 L 529.125 165.167969 C 529.125 165.167969 544.15625 169.625 539.472656 184.097656 Z M 539.472656 184.097656 " fill-opacity="1" fill-rule="nonzero"/><path fill="#000000" d="M 547.488281 139.402344 L 510.035156 130.644531 L 496.492188 141.480469 C 496.492188 141.480469 491.050781 141.207031 494.183594 128.050781 C 494.261719 127.714844 494.367188 127.40625 494.488281 127.113281 C 501.054688 106.335938 514.996094 109.507812 514.996094 109.507812 C 515.683594 106.980469 529.019531 99.988281 541.667969 114.898438 C 554.316406 129.808594 547.488281 139.402344 547.488281 139.402344 Z M 547.488281 139.402344 " fill-opacity="1" fill-rule="nonzero"/><path fill="#eb8b51" d="M 544.65625 139.96875 C 544.65625 145.613281 543.96875 150.757812 541.253906 155.027344 C 540.714844 155.875 540.09375 156.699219 539.378906 157.480469 C 537.441406 159.605469 534.796875 161.449219 531.898438 162.816406 C 531.898438 162.816406 531.898438 162.816406 531.898438 162.824219 C 532 164.171875 532.199219 165.425781 532.4375 166.542969 C 532.773438 168.125 533.1875 169.445312 533.558594 170.425781 C 534.023438 171.679688 533.703125 173.085938 532.722656 174.007812 C 529.65625 176.875 523.347656 182.605469 521.789062 182.605469 C 520.257812 182.605469 514.667969 177.140625 511.914062 174.351562 C 511.050781 173.472656 510.734375 172.195312 511.121094 171.035156 C 511.507812 169.875 511.773438 168.5 511.957031 167.085938 C 512.128906 165.769531 512.230469 164.421875 512.285156 163.195312 L 512.285156 163.183594 C 509.535156 161.984375 507.015625 160.332031 505.085938 158.351562 C 504.050781 157.285156 503.175781 156.125 502.433594 154.886719 C 499.867188 150.628906 498.929688 145.441406 498.929688 139.980469 C 498.929688 126.710938 509.167969 115.949219 521.789062 115.949219 C 534.417969 115.9375 544.65625 126.699219 544.65625 139.96875 Z M 544.65625 139.96875 " fill-opacity="1" fill-rule="nonzero"/><path fill="#000000" d="M 546.644531 134.578125 C 541.839844 142.402344 538.335938 130.558594 538.335938 130.558594 L 522.089844 129.105469 C 521.488281 129.054688 520.96875 128.667969 520.738281 128.109375 C 520.738281 128.109375 516.011719 120.035156 516.019531 117.269531 C 513.429688 123.359375 504.207031 141.765625 497.601562 135.882812 C 489.820312 128.941406 500.003906 116.738281 516.5625 114.324219 C 516.5625 114.324219 516.554688 114.339844 516.546875 114.367188 C 516.640625 114.308594 516.734375 114.253906 516.835938 114.210938 C 535.132812 107.367188 551.425781 126.796875 546.644531 134.578125 Z M 546.644531 134.578125 " fill-opacity="1" fill-rule="nonzero"/><path fill="#eb8b51" d="M 503.714844 142.109375 C 505.695312 146.636719 505.136719 151.246094 502.46875 152.414062 C 499.796875 153.582031 496.027344 150.851562 494.039062 146.324219 C 492.050781 141.800781 492.617188 137.1875 495.289062 136.019531 C 497.957031 134.851562 501.726562 137.582031 503.714844 142.109375 Z M 539.816406 142.109375 C 537.835938 146.636719 538.398438 151.246094 541.066406 152.414062 C 543.734375 153.582031 547.507812 150.851562 549.496094 146.324219 C 551.484375 141.800781 550.917969 137.1875 548.246094 136.019531 C 545.578125 134.859375 541.808594 137.582031 539.816406 142.109375 Z M 539.816406 142.109375 " fill-opacity="1" fill-rule="nonzero"/><path fill="#eb4c30" d="M 528.617188 205.554688 C 524.929688 211.28125 521.867188 215.242188 521.867188 215.242188 L 521.867188 215.351562 C 521.867188 215.351562 518.808594 211.402344 515.125 205.679688 C 516.363281 201.808594 518.027344 197.367188 518.570312 195.890625 C 518.835938 195.175781 518.785156 194.378906 518.4375 193.699219 L 516.425781 189.777344 C 515.789062 188.523438 516.191406 186.992188 517.378906 186.226562 L 520.273438 184.347656 C 521.1875 183.753906 522.367188 183.753906 523.269531 184.347656 L 526.171875 186.226562 C 527.351562 186.992188 527.765625 188.523438 527.117188 189.777344 L 525.113281 193.699219 C 524.757812 194.378906 524.714844 195.175781 524.972656 195.890625 C 525.515625 197.386719 527.316406 201.738281 528.617188 205.554688 Z M 528.617188 205.554688 " fill-opacity="1" fill-rule="nonzero"/><path fill="#000000" d="M 512.285156 163.183594 C 515.332031 164.515625 518.671875 165.28125 521.789062 165.28125 C 525.058594 165.28125 528.640625 164.363281 531.898438 162.824219 C 532 164.171875 532.199219 165.425781 532.4375 166.542969 C 529.148438 168.433594 525.277344 169.609375 521.789062 169.609375 C 518.542969 169.609375 515.019531 168.671875 511.957031 167.074219 C 512.128906 165.761719 512.230469 164.414062 512.285156 163.183594 Z M 532.050781 137.683594 C 530.433594 137.683594 529.125 138.992188 529.125 140.605469 C 529.125 142.21875 530.433594 143.527344 532.050781 143.527344 C 533.671875 143.527344 534.980469 142.21875 534.980469 140.605469 C 534.980469 138.992188 533.671875 137.683594 532.050781 137.683594 Z M 511.679688 137.683594 C 510.0625 137.683594 508.753906 138.992188 508.753906 140.605469 C 508.753906 142.21875 510.0625 143.527344 511.679688 143.527344 C 513.300781 143.527344 514.609375 142.21875 514.609375 140.605469 C 514.609375 138.992188 513.300781 137.683594 511.679688 137.683594 Z M 526.757812 131.425781 C 526.894531 132.625 527.988281 133.496094 529.191406 133.355469 L 534.875 132.703125 C 536.082031 132.566406 536.949219 131.476562 536.8125 130.273438 C 536.675781 129.070312 535.582031 128.203125 534.375 128.339844 L 528.703125 128.992188 C 527.480469 129.132812 526.617188 130.222656 526.757812 131.425781 Z M 508.976562 132.703125 L 514.652344 133.355469 C 515.855469 133.496094 516.949219 132.636719 517.085938 131.425781 C 517.226562 130.222656 516.363281 129.132812 515.148438 128.992188 L 509.476562 128.339844 C 508.269531 128.203125 507.175781 129.0625 507.039062 130.273438 C 506.910156 131.476562 507.773438 132.566406 508.976562 132.703125 Z M 519.445312 148.308594 C 519.457031 148.292969 520.636719 146.824219 522.269531 146.761719 C 523.3125 146.71875 524.335938 147.253906 525.328125 148.335938 C 525.414062 148.429688 525.523438 148.472656 525.644531 148.472656 C 525.75 148.472656 525.851562 148.4375 525.9375 148.359375 C 526.109375 148.199219 526.128906 147.933594 525.964844 147.75 C 524.792969 146.472656 523.527344 145.863281 522.234375 145.894531 C 520.195312 145.972656 518.828125 147.699219 518.765625 147.777344 C 518.621094 147.964844 518.65625 148.230469 518.84375 148.378906 C 519.035156 148.523438 519.300781 148.5 519.445312 148.308594 Z M 544.148438 142.660156 C 544.199219 142.675781 544.25 142.683594 544.304688 142.683594 C 544.476562 142.683594 544.640625 142.582031 544.707031 142.410156 C 545.355469 140.691406 546.1875 139.636719 547.117188 139.359375 C 547.988281 139.09375 548.703125 139.582031 548.738281 139.609375 C 548.925781 139.746094 549.203125 139.703125 549.339844 139.515625 C 549.476562 139.324219 549.445312 139.050781 549.246094 138.914062 C 549.203125 138.878906 548.1875 138.148438 546.886719 138.527344 C 545.664062 138.886719 544.664062 140.089844 543.898438 142.101562 C 543.8125 142.324219 543.925781 142.574219 544.148438 142.660156 Z M 494.847656 139.601562 C 494.875 139.582031 495.578125 139.085938 496.464844 139.351562 C 497.398438 139.636719 498.230469 140.691406 498.878906 142.402344 C 498.945312 142.574219 499.109375 142.675781 499.28125 142.675781 C 499.332031 142.675781 499.386719 142.667969 499.4375 142.648438 C 499.660156 142.5625 499.773438 142.316406 499.6875 142.101562 C 498.929688 140.089844 497.921875 138.886719 496.699219 138.527344 C 495.398438 138.140625 494.382812 138.878906 494.339844 138.914062 C 494.152344 139.050781 494.109375 139.316406 494.246094 139.515625 C 494.382812 139.695312 494.660156 139.738281 494.847656 139.601562 Z M 507.703125 189.5625 C 508.238281 190.238281 509.191406 190.453125 509.976562 190.074219 L 521.332031 184.5625 C 521.617188 184.425781 521.953125 184.425781 522.234375 184.578125 L 532.644531 190.085938 C 532.921875 190.230469 533.222656 190.300781 533.515625 190.300781 C 533.988281 190.300781 534.460938 190.109375 534.824219 189.757812 L 539.558594 185.058594 C 539.730469 184.898438 539.730469 184.621094 539.558594 184.449219 C 539.394531 184.277344 539.121094 184.277344 538.949219 184.449219 L 534.210938 189.148438 C 533.902344 189.457031 533.429688 189.527344 533.042969 189.320312 L 522.632812 183.816406 C 522.105469 183.539062 521.480469 183.53125 520.953125 183.789062 L 509.597656 189.304688 C 509.183594 189.507812 508.667969 189.390625 508.382812 189.027344 L 504.792969 184.492188 C 504.644531 184.304688 504.371094 184.277344 504.191406 184.425781 C 504 184.570312 503.976562 184.84375 504.121094 185.027344 Z M 521.546875 182.957031 C 521.617188 183.007812 521.703125 183.023438 521.789062 183.023438 C 521.867188 183.023438 521.933594 183.007812 522.003906 182.964844 C 522.390625 182.742188 531.5 177.425781 534.09375 172.367188 C 534.203125 172.152344 534.117188 171.894531 533.902344 171.789062 C 533.695312 171.679688 533.429688 171.765625 533.324219 171.980469 C 531.0625 176.378906 523.242188 181.222656 521.796875 182.089844 C 520.34375 181.09375 512.214844 175.457031 510.878906 172.023438 C 510.792969 171.800781 510.542969 171.695312 510.320312 171.773438 C 510.097656 171.859375 509.992188 172.109375 510.070312 172.332031 C 511.636719 176.34375 521.144531 182.691406 521.546875 182.957031 Z M 524.957031 194.035156 C 524.820312 194 521.574219 193.21875 518.578125 194.035156 C 518.34375 194.09375 518.214844 194.335938 518.277344 194.558594 C 518.328125 194.75 518.5 194.878906 518.6875 194.878906 C 518.722656 194.878906 518.765625 194.867188 518.800781 194.859375 C 521.574219 194.105469 524.714844 194.851562 524.75 194.859375 C 524.984375 194.921875 525.214844 194.773438 525.265625 194.542969 C 525.328125 194.320312 525.191406 194.085938 524.957031 194.035156 Z M 564.089844 234.273438 C 564.332031 234.273438 564.519531 234.085938 564.519531 233.84375 L 564.519531 219.507812 L 568.710938 206.859375 C 568.789062 206.636719 568.660156 206.394531 568.4375 206.316406 C 568.203125 206.238281 567.964844 206.367188 567.894531 206.59375 L 563.675781 219.3125 C 563.660156 219.355469 563.648438 219.398438 563.648438 219.449219 L 563.648438 233.851562 C 563.660156 234.085938 563.847656 234.273438 564.089844 234.273438 Z M 585.089844 236.410156 C 576.730469 234.925781 571.105469 241.761719 571.046875 241.832031 C 570.898438 242.019531 570.925781 242.285156 571.113281 242.433594 C 571.191406 242.492188 571.289062 242.527344 571.382812 242.527344 C 571.511719 242.527344 571.632812 242.476562 571.71875 242.363281 C 571.769531 242.296875 577.074219 235.851562 584.933594 237.253906 C 585.167969 237.296875 585.390625 237.140625 585.433594 236.910156 C 585.476562 236.679688 585.320312 236.453125 585.089844 236.410156 Z M 561.394531 278.976562 C 561.421875 278.976562 561.445312 278.984375 561.464844 278.984375 C 561.667969 278.984375 561.851562 278.839844 561.886719 278.625 C 562.167969 276.941406 563.890625 255.605469 563.960938 254.695312 C 563.976562 254.457031 563.804688 254.25 563.5625 254.234375 C 563.332031 254.214844 563.117188 254.386719 563.097656 254.628906 C 563.082031 254.851562 561.308594 276.828125 561.03125 278.480469 C 561.007812 278.71875 561.160156 278.941406 561.394531 278.976562 Z M 476.964844 215.78125 C 477.015625 215.78125 477.058594 215.773438 477.113281 215.757812 C 477.335938 215.679688 477.449219 215.429688 477.371094 215.207031 L 472.867188 202.777344 C 472.789062 202.554688 472.539062 202.445312 472.316406 202.519531 C 472.09375 202.597656 471.980469 202.847656 472.058594 203.070312 L 476.558594 215.5 C 476.621094 215.671875 476.792969 215.78125 476.964844 215.78125 Z M 468.433594 178.765625 C 468.199219 178.714844 467.96875 178.859375 467.917969 179.089844 C 467.875 179.289062 463.414062 198.757812 448.65625 200.742188 C 448.421875 200.777344 448.25 200.992188 448.285156 201.222656 C 448.3125 201.4375 448.5 201.59375 448.714844 201.59375 C 448.734375 201.59375 448.75 201.59375 448.777344 201.59375 C 464.136719 199.53125 468.726562 179.476562 468.769531 179.273438 C 468.8125 179.039062 468.664062 178.816406 468.433594 178.765625 Z M 570.261719 275.472656 L 565.84375 281.648438 C 565.707031 281.835938 565.75 282.113281 565.949219 282.25 C 566.027344 282.300781 566.113281 282.328125 566.199219 282.328125 C 566.335938 282.328125 566.464844 282.265625 566.550781 282.144531 L 570.96875 275.972656 C 571.105469 275.78125 571.0625 275.507812 570.867188 275.371094 C 570.667969 275.242188 570.398438 275.285156 570.261719 275.472656 Z M 566.601562 273.195312 L 563.160156 280.050781 C 563.054688 280.265625 563.140625 280.523438 563.347656 280.625 C 563.410156 280.660156 563.476562 280.667969 563.539062 280.667969 C 563.691406 280.667969 563.847656 280.582031 563.925781 280.429688 L 567.371094 273.574219 C 567.472656 273.359375 567.386719 273.101562 567.179688 273 C 566.964844 272.894531 566.707031 272.980469 566.601562 273.195312 Z M 578.242188 274.089844 L 574.285156 272.972656 C 574.058594 272.90625 573.820312 273.042969 573.75 273.273438 C 573.679688 273.507812 573.820312 273.738281 574.050781 273.808594 L 578.011719 274.921875 C 578.046875 274.933594 578.089844 274.941406 578.132812 274.941406 C 578.320312 274.941406 578.492188 274.820312 578.546875 274.632812 C 578.613281 274.390625 578.476562 274.148438 578.242188 274.089844 Z M 460.296875 160.566406 C 460.347656 160.582031 460.398438 160.589844 460.441406 160.589844 C 460.613281 160.589844 460.777344 160.480469 460.847656 160.308594 L 463.542969 153.042969 C 463.628906 152.820312 463.507812 152.570312 463.285156 152.492188 C 463.058594 152.40625 462.808594 152.527344 462.734375 152.75 L 460.039062 160.015625 C 459.953125 160.238281 460.074219 160.480469 460.296875 160.566406 Z M 455.820312 160.566406 C 455.871094 160.582031 455.921875 160.589844 455.972656 160.589844 C 456.144531 160.589844 456.308594 160.488281 456.378906 160.316406 L 459.304688 152.605469 C 459.390625 152.378906 459.28125 152.132812 459.054688 152.054688 C 458.832031 151.96875 458.582031 152.078125 458.503906 152.304688 L 455.578125 160.015625 C 455.484375 160.230469 455.59375 160.480469 455.820312 160.566406 Z M 465.265625 161.75 C 465.289062 161.757812 465.316406 161.757812 465.339844 161.757812 C 465.546875 161.757812 465.730469 161.613281 465.761719 161.40625 L 467.039062 154.683594 C 467.082031 154.449219 466.925781 154.226562 466.695312 154.183594 C 466.460938 154.140625 466.238281 154.296875 466.195312 154.527344 L 464.917969 161.253906 C 464.875 161.484375 465.03125 161.707031 465.265625 161.75 Z M 465.703125 164.566406 C 465.523438 164.722656 465.503906 164.996094 465.660156 165.175781 L 467.140625 166.871094 C 467.226562 166.964844 467.347656 167.015625 467.46875 167.015625 C 467.570312 167.015625 467.667969 166.980469 467.753906 166.914062 C 467.933594 166.757812 467.949219 166.484375 467.796875 166.304688 L 466.316406 164.609375 C 466.152344 164.429688 465.882812 164.414062 465.703125 164.566406 Z M 524.464844 230.933594 C 524.464844 232.339844 523.3125 233.492188 521.902344 233.492188 C 520.488281 233.492188 519.335938 232.339844 519.335938 230.933594 C 519.335938 229.523438 520.488281 228.371094 521.902344 228.371094 C 523.3125 228.371094 524.464844 229.523438 524.464844 230.933594 Z M 523.605469 230.933594 C 523.605469 229.996094 522.839844 229.230469 521.902344 229.230469 C 520.960938 229.230469 520.195312 229.996094 520.195312 230.933594 C 520.195312 231.867188 520.960938 232.632812 521.902344 232.632812 C 522.839844 232.632812 523.605469 231.867188 523.605469 230.933594 Z M 524.398438 242.851562 C 524.398438 244.261719 523.242188 245.414062 521.832031 245.414062 C 520.417969 245.414062 519.265625 244.261719 519.265625 242.851562 C 519.265625 241.445312 520.417969 240.292969 521.832031 240.292969 C 523.253906 240.292969 524.398438 241.445312 524.398438 242.851562 Z M 523.535156 242.851562 C 523.535156 241.917969 522.769531 241.152344 521.832031 241.152344 C 520.894531 241.152344 520.125 241.917969 520.125 242.851562 C 520.125 243.789062 520.894531 244.554688 521.832031 244.554688 C 522.769531 244.554688 523.535156 243.789062 523.535156 242.851562 Z M 524.269531 254.773438 C 524.269531 256.183594 523.113281 257.332031 521.703125 257.332031 C 520.289062 257.332031 519.136719 256.183594 519.136719 254.773438 C 519.136719 253.367188 520.289062 252.214844 521.703125 252.214844 C 523.113281 252.214844 524.269531 253.355469 524.269531 254.773438 Z M 523.40625 254.773438 C 523.40625 253.839844 522.640625 253.074219 521.703125 253.074219 C 520.765625 253.074219 519.996094 253.839844 519.996094 254.773438 C 519.996094 255.710938 520.765625 256.476562 521.703125 256.476562 C 522.640625 256.476562 523.40625 255.710938 523.40625 254.773438 Z M 519.078125 266.6875 C 519.078125 265.277344 520.230469 264.128906 521.640625 264.128906 C 523.054688 264.128906 524.207031 265.277344 524.207031 266.6875 C 524.207031 268.09375 523.054688 269.246094 521.640625 269.246094 C 520.222656 269.246094 519.078125 268.09375 519.078125 266.6875 Z M 519.9375 266.6875 C 519.9375 267.621094 520.703125 268.386719 521.640625 268.386719 C 522.582031 268.386719 523.347656 267.621094 523.347656 266.6875 C 523.347656 265.75 522.582031 264.984375 521.640625 264.984375 C 520.703125 264.984375 519.9375 265.75 519.9375 266.6875 Z M 524.234375 278.609375 C 524.234375 280.015625 523.082031 281.167969 521.667969 281.167969 C 520.257812 281.167969 519.101562 280.015625 519.101562 278.609375 C 519.101562 277.199219 520.257812 276.046875 521.667969 276.046875 C 523.082031 276.046875 524.234375 277.199219 524.234375 278.609375 Z M 523.371094 278.609375 C 523.371094 277.671875 522.605469 276.90625 521.667969 276.90625 C 520.730469 276.90625 519.964844 277.671875 519.964844 278.609375 C 519.964844 279.542969 520.730469 280.308594 521.667969 280.308594 C 522.605469 280.308594 523.371094 279.542969 523.371094 278.609375 Z M 524.199219 290.605469 C 524.199219 292.015625 523.046875 293.164062 521.632812 293.164062 C 520.222656 293.164062 519.066406 292.015625 519.066406 290.605469 C 519.066406 289.199219 520.222656 288.046875 521.632812 288.046875 C 523.054688 288.054688 524.199219 289.199219 524.199219 290.605469 Z M 523.339844 290.605469 C 523.339844 289.667969 522.570312 288.90625 521.632812 288.90625 C 520.695312 288.90625 519.929688 289.667969 519.929688 290.605469 C 519.929688 291.542969 520.695312 292.304688 521.632812 292.304688 C 522.570312 292.304688 523.339844 291.542969 523.339844 290.605469 Z M 498.230469 182.5 C 498.171875 182.269531 497.9375 182.132812 497.714844 182.183594 C 497.484375 182.242188 497.34375 182.476562 497.398438 182.699219 C 501.183594 198.226562 515.683594 219.585938 516.871094 221.320312 L 516.871094 289.472656 C 499.9375 289.832031 481.246094 286.046875 481.054688 286.011719 C 480.824219 285.960938 480.589844 286.113281 480.546875 286.347656 C 480.496094 286.578125 480.648438 286.800781 480.882812 286.851562 C 481.0625 286.886719 498.199219 290.355469 514.566406 290.355469 C 515.339844 290.355469 516.105469 290.347656 516.871094 290.332031 L 516.871094 303.378906 C 516.871094 303.617188 517.0625 303.808594 517.304688 303.808594 C 517.542969 303.808594 517.734375 303.617188 517.734375 303.378906 L 517.734375 221.183594 C 517.734375 221.097656 517.707031 221.011719 517.65625 220.945312 C 517.5 220.730469 502.125 198.457031 498.230469 182.5 Z M 559.921875 287.4375 C 560.15625 287.386719 560.300781 287.160156 560.257812 286.929688 C 560.207031 286.699219 559.980469 286.550781 559.75 286.59375 C 559.59375 286.628906 543.785156 289.875 526.824219 289.472656 L 526.824219 221.320312 C 528.074219 219.5 544.054688 195.992188 548.789062 178.757812 C 548.851562 178.523438 548.71875 178.292969 548.488281 178.230469 C 548.265625 178.171875 548.023438 178.300781 547.960938 178.53125 C 543.089844 196.234375 526.214844 220.695312 526.042969 220.945312 C 525.992188 221.011719 525.964844 221.097656 525.964844 221.183594 L 525.964844 303.378906 C 525.964844 303.617188 526.152344 303.808594 526.394531 303.808594 C 526.636719 303.808594 526.824219 303.617188 526.824219 303.378906 L 526.824219 290.324219 C 527.808594 290.347656 528.789062 290.355469 529.761719 290.355469 C 545.65625 290.375 559.765625 287.472656 559.921875 287.4375 Z M 549.953125 308.925781 C 549.71875 308.953125 549.546875 309.167969 549.574219 309.40625 L 555.28125 356.988281 C 555.308594 357.203125 555.496094 357.367188 555.710938 357.367188 C 555.730469 357.367188 555.746094 357.367188 555.761719 357.367188 C 555.996094 357.339844 556.167969 357.125 556.140625 356.882812 L 550.433594 309.304688 C 550.398438 309.0625 550.183594 308.890625 549.953125 308.925781 Z M 535.746094 311.992188 C 535.503906 312 535.324219 312.207031 535.339844 312.445312 L 537.871094 359.589844 C 537.878906 359.820312 538.070312 359.992188 538.300781 359.992188 C 538.3125 359.992188 538.320312 359.992188 538.328125 359.992188 C 538.570312 359.984375 538.75 359.777344 538.734375 359.539062 L 536.203125 312.394531 C 536.183594 312.15625 535.996094 311.972656 535.746094 311.992188 Z M 520.679688 311.992188 C 520.4375 311.992188 520.246094 312.179688 520.238281 312.414062 L 519.585938 360.945312 C 519.585938 361.1875 519.773438 361.375 520.007812 361.386719 C 520.007812 361.386719 520.007812 361.386719 520.015625 361.386719 C 520.246094 361.386719 520.445312 361.195312 520.445312 360.964844 L 521.101562 312.429688 C 521.109375 312.1875 520.917969 311.992188 520.679688 311.992188 Z M 504.730469 311.992188 C 504.484375 311.964844 504.292969 312.15625 504.277344 312.394531 L 501.339844 359.539062 C 501.324219 359.777344 501.503906 359.976562 501.746094 359.992188 C 501.753906 359.992188 501.761719 359.992188 501.769531 359.992188 C 501.996094 359.992188 502.183594 359.820312 502.199219 359.589844 L 505.136719 312.445312 C 505.144531 312.207031 504.964844 312.007812 504.730469 311.992188 Z M 484.445312 357.367188 C 484.664062 357.367188 484.84375 357.210938 484.878906 356.988281 L 490.914062 309.398438 C 490.9375 309.167969 490.777344 308.953125 490.542969 308.917969 C 490.3125 308.890625 490.09375 309.054688 490.0625 309.285156 L 484.023438 356.875 C 484 357.109375 484.164062 357.324219 484.394531 357.355469 C 484.414062 357.367188 484.429688 357.367188 484.445312 357.367188 Z M 466.804688 141.574219 C 466.875 141.617188 466.960938 141.644531 467.039062 141.644531 C 467.183594 141.644531 467.320312 141.574219 467.398438 141.445312 C 468.328125 139.988281 471.773438 139.59375 473.023438 139.566406 C 473.261719 139.558594 473.445312 139.359375 473.445312 139.128906 C 473.433594 138.886719 473.21875 138.707031 473.003906 138.707031 C 472.804688 138.714844 468.054688 138.84375 466.675781 140.992188 C 466.546875 141.179688 466.609375 141.445312 466.804688 141.574219 Z M 567.058594 412.082031 C 566.9375 412.117188 554.558594 415.957031 541.773438 414.695312 C 541.546875 414.675781 541.324219 414.839844 541.296875 415.082031 C 541.273438 415.3125 541.445312 415.527344 541.6875 415.554688 C 543.519531 415.734375 545.335938 415.8125 547.109375 415.8125 C 557.941406 415.8125 567.207031 412.941406 567.308594 412.90625 C 567.535156 412.839844 567.664062 412.597656 567.59375 412.367188 C 567.523438 412.136719 567.285156 412.015625 567.058594 412.082031 Z M 501.519531 415.449219 C 501.347656 415.457031 483.921875 416.464844 476.269531 412.863281 C 476.050781 412.761719 475.792969 412.855469 475.691406 413.070312 C 475.585938 413.285156 475.683594 413.542969 475.898438 413.648438 C 480.953125 416.027344 489.828125 416.464844 495.710938 416.464844 C 498.964844 416.464844 501.304688 416.328125 501.5625 416.308594 C 501.804688 416.292969 501.984375 416.09375 501.96875 415.855469 C 501.96875 415.621094 501.761719 415.433594 501.519531 415.449219 Z M 501.519531 415.449219 " fill-opacity="1" fill-rule="nonzero"/><path fill="#ffffff" d="M 512.601562 152.449219 L 531.800781 152.449219 C 531.800781 152.449219 530.484375 159.398438 522.203125 159.398438 C 513.917969 159.398438 512.601562 152.449219 512.601562 152.449219 Z M 512.601562 152.449219 " fill-opacity="1" fill-rule="nonzero"/><path fill="#000000" d="M 522.191406 159.828125 C 513.652344 159.828125 512.1875 152.605469 512.171875 152.535156 C 512.144531 152.40625 512.179688 152.277344 512.265625 152.183594 C 512.351562 152.089844 512.472656 152.027344 512.601562 152.027344 L 531.800781 152.027344 C 531.929688 152.027344 532.050781 152.089844 532.128906 152.183594 C 532.214844 152.277344 532.242188 152.414062 532.222656 152.535156 C 532.207031 152.605469 530.734375 159.828125 522.191406 159.828125 Z M 513.152344 152.878906 C 513.636719 154.433594 515.589844 158.960938 522.191406 158.960938 C 528.796875 158.960938 530.761719 154.433594 531.234375 152.878906 Z M 513.152344 152.878906 " fill-opacity="1" fill-rule="nonzero"/></svg>